<svg width="198" height="198" viewBox="0 0 198 198" fill="none" xmlns="http://www.w3.org/2000/svg">
<rect width="198" height="198" fill="white"/>
<path fill-rule="evenodd" clip-rule="evenodd" d="M99.5853 134.171C133.369 134.171 160.756 106.784 160.756 73C160.756 39.2164 133.369 11.8294 99.5853 11.8294C65.8017 11.8294 38.4147 39.2164 38.4147 73C38.4147 106.784 65.8017 134.171 99.5853 134.171ZM99.5853 118.878C124.923 118.878 145.463 98.3377 145.463 73C145.463 47.6623 124.923 27.122 99.5853 27.122C74.2476 27.122 53.7073 47.6623 53.7073 73C53.7073 98.3377 74.2476 118.878 99.5853 118.878Z" fill="url(#paint0_linear_2_16)"/>
<path d="M161 73C161 85.2624 157.393 97.2495 150.635 107.445C143.878 117.641 134.273 125.588 123.035 130.281C111.797 134.973 99.4318 136.201 87.5019 133.809C75.5721 131.416 64.6139 125.511 56.0129 116.841C47.412 108.17 41.5547 97.1224 39.1817 85.0956C36.8087 73.0688 38.0266 60.6026 42.6814 49.2736C47.3362 37.9446 55.2188 28.2615 65.3324 21.4489C75.4461 14.6362 87.3365 11 99.5 11L99.5 73L161 73Z" fill="white" fill-opacity="0.7"/>
<path d="M80.92 150.78V160.3H82.42V152.26H95.48V160.2H97.04V150.78H80.92ZM81.72 157.58V159.04H96.38V157.58H81.72ZM88.16 147.2V165.58H89.72V147.2H88.16ZM113.48 151.36C111.24 158.22 106.9 162.14 99.76 164.18C100.08 164.54 100.56 165.26 100.72 165.64C108 163.28 112.54 159.16 115.06 151.82L113.48 151.36ZM104.4 151.46L102.92 151.92C105.38 158.92 109.78 163.68 117.2 165.62C117.44 165.18 117.92 164.5 118.28 164.14C111.06 162.46 106.56 157.86 104.4 151.46ZM100 150.6V152.08H118.08V150.6H100ZM108.2 147.2V151.5H109.74V147.2H108.2ZM51.6369 184V175.6H55.2129C55.6929 175.6 56.1329 175.72 56.5329 175.96C56.9409 176.192 57.2649 176.512 57.5049 176.92C57.7449 177.32 57.8649 177.772 57.8649 178.276C57.8649 178.732 57.7449 179.156 57.5049 179.548C57.2649 179.94 56.9449 180.256 56.5449 180.496C56.1449 180.728 55.7009 180.844 55.2129 180.844H52.9329V184H51.6369ZM56.6289 184L54.4929 180.208L55.8249 179.908L58.2009 184.012L56.6289 184ZM52.9329 179.596H55.3329C55.5649 179.596 55.7729 179.54 55.9569 179.428C56.1409 179.308 56.2849 179.148 56.3889 178.948C56.4929 178.74 56.5449 178.512 56.5449 178.264C56.5449 177.984 56.4769 177.74 56.3409 177.532C56.2129 177.316 56.0289 177.148 55.7889 177.028C55.5569 176.908 55.2929 176.848 54.9969 176.848H52.9329V179.596ZM62.3743 184.12C61.7263 184.12 61.1503 183.984 60.6463 183.712C60.1503 183.432 59.7583 183.052 59.4703 182.572C59.1903 182.092 59.0503 181.54 59.0503 180.916C59.0503 180.42 59.1303 179.968 59.2903 179.56C59.4503 179.152 59.6703 178.8 59.9503 178.504C60.2383 178.2 60.5783 177.968 60.9703 177.808C61.3703 177.64 61.8023 177.556 62.2663 177.556C62.6743 177.556 63.0543 177.636 63.4063 177.796C63.7583 177.948 64.0623 178.16 64.3183 178.432C64.5823 178.704 64.7823 179.028 64.9183 179.404C65.0623 179.772 65.1303 180.176 65.1223 180.616L65.1103 181.144H59.9623L59.6863 180.16H64.0423L63.8623 180.364V180.076C63.8383 179.812 63.7503 179.576 63.5983 179.368C63.4463 179.16 63.2543 178.996 63.0223 178.876C62.7903 178.756 62.5383 178.696 62.2663 178.696C61.8343 178.696 61.4703 178.78 61.1743 178.948C60.8783 179.108 60.6543 179.348 60.5023 179.668C60.3503 179.98 60.2743 180.368 60.2743 180.832C60.2743 181.272 60.3663 181.656 60.5503 181.984C60.7343 182.304 60.9943 182.552 61.3303 182.728C61.6663 182.904 62.0543 182.992 62.4943 182.992C62.8063 182.992 63.0943 182.94 63.3583 182.836C63.6303 182.732 63.9223 182.544 64.2343 182.272L64.8583 183.148C64.6663 183.34 64.4303 183.508 64.1503 183.652C63.8783 183.796 63.5863 183.912 63.2743 184C62.9703 184.08 62.6703 184.12 62.3743 184.12ZM70.1976 184V179.896C70.1976 179.544 70.0696 179.26 69.8136 179.044C69.5656 178.82 69.2496 178.708 68.8656 178.708C68.5136 178.708 68.1936 178.78 67.9056 178.924C67.6256 179.068 67.3696 179.288 67.1376 179.584L66.3336 178.78C66.7096 178.372 67.1136 178.068 67.5456 177.868C67.9856 177.668 68.4576 177.568 68.9616 177.568C69.4416 177.568 69.8576 177.648 70.2096 177.808C70.5616 177.968 70.8336 178.204 71.0256 178.516C71.2176 178.82 71.3136 179.192 71.3136 179.632V184H70.1976ZM68.3136 184.12C67.9056 184.12 67.5416 184.04 67.2216 183.88C66.9016 183.72 66.6456 183.5 66.4536 183.22C66.2696 182.932 66.1776 182.596 66.1776 182.212C66.1776 181.876 66.2376 181.58 66.3576 181.324C66.4776 181.068 66.6536 180.856 66.8856 180.688C67.1256 180.52 67.4216 180.392 67.7736 180.304C68.1336 180.216 68.5456 180.172 69.0096 180.172H70.7616L70.6536 181.156H68.8536C68.6136 181.156 68.3976 181.18 68.2056 181.228C68.0216 181.268 67.8616 181.336 67.7256 181.432C67.5976 181.52 67.5016 181.628 67.4376 181.756C67.3736 181.876 67.3416 182.02 67.3416 182.188C67.3416 182.364 67.3856 182.52 67.4736 182.656C67.5616 182.784 67.6816 182.884 67.8336 182.956C67.9856 183.028 68.1616 183.064 68.3616 183.064C68.6496 183.064 68.9216 183.016 69.1776 182.92C69.4416 182.816 69.6736 182.676 69.8736 182.5C70.0816 182.324 70.2416 182.128 70.3536 181.912L70.6416 182.716C70.4736 182.996 70.2656 183.24 70.0176 183.448C69.7696 183.656 69.5016 183.82 69.2136 183.94C68.9256 184.06 68.6256 184.12 68.3136 184.12ZM75.5037 184.12C74.9277 184.12 74.4117 183.98 73.9557 183.7C73.5077 183.412 73.1517 183.024 72.8877 182.536C72.6237 182.04 72.4917 181.476 72.4917 180.844C72.4917 180.212 72.6197 179.652 72.8757 179.164C73.1397 178.668 73.4957 178.28 73.9437 178C74.3917 177.712 74.8997 177.568 75.4677 177.568C75.7797 177.568 76.0797 177.62 76.3677 177.724C76.6637 177.82 76.9277 177.956 77.1597 178.132C77.3917 178.3 77.5717 178.488 77.6997 178.696C77.8357 178.896 77.9037 179.1 77.9037 179.308L77.5437 179.332V175.12H78.7797V184H77.5437V182.5H77.7837C77.7837 182.692 77.7197 182.884 77.5917 183.076C77.4637 183.26 77.2917 183.432 77.0757 183.592C76.8677 183.752 76.6237 183.88 76.3437 183.976C76.0717 184.072 75.7917 184.12 75.5037 184.12ZM75.6717 183.052C76.0477 183.052 76.3797 182.956 76.6677 182.764C76.9557 182.572 77.1797 182.312 77.3397 181.984C77.5077 181.648 77.5917 181.268 77.5917 180.844C77.5917 180.42 77.5077 180.044 77.3397 179.716C77.1797 179.38 76.9557 179.116 76.6677 178.924C76.3797 178.732 76.0477 178.636 75.6717 178.636C75.2957 178.636 74.9637 178.732 74.6757 178.924C74.3877 179.116 74.1597 179.38 73.9917 179.716C73.8317 180.044 73.7517 180.42 73.7517 180.844C73.7517 181.268 73.8317 181.648 73.9917 181.984C74.1597 182.312 74.3877 182.572 74.6757 182.764C74.9637 182.956 75.2957 183.052 75.6717 183.052ZM80.6852 184V177.7H81.9212V184H80.6852ZM81.2852 176.308C81.0212 176.308 80.8172 176.24 80.6732 176.104C80.5292 175.968 80.4572 175.776 80.4572 175.528C80.4572 175.296 80.5292 175.108 80.6732 174.964C80.8252 174.82 81.0292 174.748 81.2852 174.748C81.5492 174.748 81.7532 174.816 81.8972 174.952C82.0412 175.088 82.1132 175.28 82.1132 175.528C82.1132 175.76 82.0372 175.948 81.8852 176.092C81.7412 176.236 81.5412 176.308 81.2852 176.308ZM83.821 184V177.7H85.057V178.996L84.841 179.14C84.921 178.86 85.077 178.604 85.309 178.372C85.541 178.132 85.817 177.94 86.137 177.796C86.457 177.644 86.785 177.568 87.121 177.568C87.601 177.568 88.001 177.664 88.321 177.856C88.641 178.04 88.881 178.324 89.041 178.708C89.201 179.092 89.281 179.576 89.281 180.16V184H88.045V180.244C88.045 179.884 87.997 179.588 87.901 179.356C87.805 179.116 87.657 178.944 87.457 178.84C87.257 178.728 87.009 178.68 86.713 178.696C86.473 178.696 86.253 178.736 86.053 178.816C85.853 178.888 85.677 178.992 85.525 179.128C85.381 179.264 85.265 179.424 85.177 179.608C85.097 179.784 85.057 179.976 85.057 180.184V184H84.445C84.341 184 84.237 184 84.133 184C84.029 184 83.925 184 83.821 184ZM93.7778 186.76C93.3298 186.76 92.8818 186.688 92.4338 186.544C91.9938 186.408 91.6378 186.228 91.3658 186.004L91.8218 185.044C92.0618 185.228 92.3578 185.376 92.7098 185.488C93.0698 185.6 93.4258 185.656 93.7778 185.656C94.2178 185.656 94.5858 185.584 94.8818 185.44C95.1778 185.296 95.4018 185.084 95.5538 184.804C95.7058 184.524 95.7818 184.176 95.7818 183.76V182.548L95.9138 182.632C95.8738 182.88 95.7418 183.12 95.5178 183.352C95.3018 183.576 95.0298 183.76 94.7018 183.904C94.3738 184.048 94.0378 184.12 93.6938 184.12C93.0938 184.12 92.5578 183.98 92.0858 183.7C91.6218 183.412 91.2538 183.024 90.9818 182.536C90.7098 182.04 90.5738 181.476 90.5738 180.844C90.5738 180.212 90.7058 179.652 90.9698 179.164C91.2418 178.668 91.6098 178.28 92.0738 178C92.5458 177.712 93.0738 177.568 93.6578 177.568C93.8978 177.568 94.1298 177.6 94.3538 177.664C94.5778 177.72 94.7858 177.804 94.9778 177.916C95.1698 178.02 95.3418 178.136 95.4938 178.264C95.6458 178.392 95.7698 178.528 95.8658 178.672C95.9618 178.816 96.0218 178.952 96.0458 179.08L95.7818 179.176V177.7H97.0178V183.616C97.0178 184.12 96.9418 184.564 96.7898 184.948C96.6458 185.34 96.4338 185.668 96.1537 185.932C95.8738 186.204 95.5338 186.408 95.1338 186.544C94.7338 186.688 94.2818 186.76 93.7778 186.76ZM93.8258 182.98C94.2178 182.98 94.5658 182.888 94.8698 182.704C95.1738 182.52 95.4098 182.268 95.5778 181.948C95.7458 181.628 95.8298 181.26 95.8298 180.844C95.8298 180.428 95.7418 180.06 95.5658 179.74C95.3978 179.412 95.1618 179.156 94.8578 178.972C94.5618 178.788 94.2178 178.696 93.8258 178.696C93.4418 178.696 93.0978 178.792 92.7938 178.984C92.4978 179.168 92.2618 179.424 92.0858 179.752C91.9178 180.072 91.8338 180.436 91.8338 180.844C91.8338 181.252 91.9178 181.62 92.0858 181.948C92.2618 182.268 92.4978 182.52 92.7938 182.704C93.0978 182.888 93.4418 182.98 93.8258 182.98ZM98.1027 185.584L103.047 175.6H104.235L99.3027 185.584H98.1027ZM107.53 184L104.854 175.6H106.234L107.854 180.856C107.918 181.032 107.974 181.24 108.022 181.48C108.07 181.72 108.114 181.952 108.154 182.176C108.202 182.392 108.238 182.564 108.262 182.692L107.914 182.68C108.034 182.256 108.126 181.928 108.19 181.696C108.262 181.464 108.318 181.288 108.358 181.168C108.398 181.04 108.434 180.932 108.466 180.844L109.978 177.052H111.142L112.606 180.844C112.686 181.036 112.754 181.228 112.81 181.42C112.874 181.604 112.93 181.792 112.978 181.984C113.026 182.168 113.078 182.364 113.134 182.572L112.822 182.656C112.862 182.44 112.89 182.272 112.906 182.152C112.93 182.024 112.95 181.92 112.966 181.84C112.982 181.76 112.998 181.684 113.014 181.612C113.03 181.532 113.054 181.432 113.086 181.312C113.126 181.192 113.178 181.028 113.242 180.82L114.838 175.6H116.23L113.554 184H112.654L110.434 178.744L110.542 178.792L108.406 184H107.53ZM117.348 184V177.7H118.596V179.68L118.476 179.2C118.564 178.896 118.712 178.62 118.92 178.372C119.136 178.124 119.38 177.928 119.652 177.784C119.932 177.64 120.22 177.568 120.516 177.568C120.652 177.568 120.78 177.58 120.9 177.604C121.028 177.628 121.128 177.656 121.2 177.688L120.876 179.032C120.78 178.992 120.672 178.96 120.552 178.936C120.44 178.904 120.328 178.888 120.216 178.888C120 178.888 119.792 178.932 119.592 179.02C119.4 179.1 119.228 179.216 119.076 179.368C118.932 179.512 118.816 179.684 118.728 179.884C118.64 180.076 118.596 180.288 118.596 180.52V184H117.348ZM122.392 184V177.7H123.628V184H122.392ZM122.992 176.308C122.728 176.308 122.524 176.24 122.38 176.104C122.236 175.968 122.164 175.776 122.164 175.528C122.164 175.296 122.236 175.108 122.38 174.964C122.532 174.82 122.736 174.748 122.992 174.748C123.256 174.748 123.46 174.816 123.604 174.952C123.748 175.088 123.82 175.28 123.82 175.528C123.82 175.76 123.744 175.948 123.592 176.092C123.448 176.236 123.248 176.308 122.992 176.308ZM126.308 184V176.092H127.544V184H126.308ZM125 178.9V177.7H129.008V178.9H125ZM130.338 184V177.7H131.574V184H130.338ZM130.938 176.308C130.674 176.308 130.47 176.24 130.326 176.104C130.182 175.968 130.11 175.776 130.11 175.528C130.11 175.296 130.182 175.108 130.326 174.964C130.478 174.82 130.682 174.748 130.938 174.748C131.202 174.748 131.406 174.816 131.55 174.952C131.694 175.088 131.766 175.28 131.766 175.528C131.766 175.76 131.69 175.948 131.538 176.092C131.394 176.236 131.194 176.308 130.938 176.308ZM133.473 184V177.7H134.709V178.996L134.493 179.14C134.573 178.86 134.729 178.604 134.961 178.372C135.193 178.132 135.469 177.94 135.789 177.796C136.109 177.644 136.437 177.568 136.773 177.568C137.253 177.568 137.653 177.664 137.973 177.856C138.293 178.04 138.533 178.324 138.693 178.708C138.853 179.092 138.933 179.576 138.933 180.16V184H137.697V180.244C137.697 179.884 137.649 179.588 137.553 179.356C137.457 179.116 137.309 178.944 137.109 178.84C136.909 178.728 136.661 178.68 136.365 178.696C136.125 178.696 135.905 178.736 135.705 178.816C135.505 178.888 135.329 178.992 135.177 179.128C135.033 179.264 134.917 179.424 134.829 179.608C134.749 179.784 134.709 179.976 134.709 180.184V184H134.097C133.993 184 133.889 184 133.785 184C133.681 184 133.577 184 133.473 184ZM143.43 186.76C142.982 186.76 142.534 186.688 142.086 186.544C141.646 186.408 141.29 186.228 141.018 186.004L141.474 185.044C141.714 185.228 142.01 185.376 142.362 185.488C142.722 185.6 143.078 185.656 143.43 185.656C143.87 185.656 144.238 185.584 144.534 185.44C144.83 185.296 145.054 185.084 145.206 184.804C145.358 184.524 145.434 184.176 145.434 183.76V182.548L145.566 182.632C145.526 182.88 145.394 183.12 145.17 183.352C144.954 183.576 144.682 183.76 144.354 183.904C144.026 184.048 143.69 184.12 143.346 184.12C142.746 184.12 142.21 183.98 141.738 183.7C141.274 183.412 140.906 183.024 140.634 182.536C140.362 182.04 140.226 181.476 140.226 180.844C140.226 180.212 140.358 179.652 140.622 179.164C140.894 178.668 141.262 178.28 141.726 178C142.198 177.712 142.726 177.568 143.31 177.568C143.55 177.568 143.782 177.6 144.006 177.664C144.23 177.72 144.438 177.804 144.63 177.916C144.822 178.02 144.994 178.136 145.146 178.264C145.298 178.392 145.422 178.528 145.518 178.672C145.614 178.816 145.674 178.952 145.698 179.08L145.434 179.176V177.7H146.67V183.616C146.67 184.12 146.594 184.564 146.442 184.948C146.298 185.34 146.086 185.668 145.806 185.932C145.526 186.204 145.186 186.408 144.786 186.544C144.386 186.688 143.934 186.76 143.43 186.76ZM143.478 182.98C143.87 182.98 144.218 182.888 144.522 182.704C144.826 182.52 145.062 182.268 145.23 181.948C145.398 181.628 145.482 181.26 145.482 180.844C145.482 180.428 145.394 180.06 145.218 179.74C145.05 179.412 144.814 179.156 144.51 178.972C144.214 178.788 143.87 178.696 143.478 178.696C143.094 178.696 142.75 178.792 142.446 178.984C142.15 179.168 141.914 179.424 141.738 179.752C141.57 180.072 141.486 180.436 141.486 180.844C141.486 181.252 141.57 181.62 141.738 181.948C141.914 182.268 142.15 182.52 142.446 182.704C142.75 182.888 143.094 182.98 143.478 182.98Z" fill="black"/>
<path d="M74.4729 74V65.6H77.9769C78.5129 65.6 78.9649 65.68 79.3329 65.84C79.7009 66 79.9769 66.24 80.1609 66.56C80.3529 66.872 80.4489 67.256 80.4489 67.712C80.4489 68.168 80.3209 68.556 80.0649 68.876C79.8169 69.196 79.4689 69.416 79.0209 69.536V69.296C79.3969 69.376 79.7249 69.52 80.0049 69.728C80.2849 69.928 80.5009 70.18 80.6529 70.484C80.8129 70.788 80.8929 71.136 80.8929 71.528C80.8929 71.928 80.8289 72.284 80.7009 72.596C80.5809 72.9 80.3969 73.156 80.1489 73.364C79.9089 73.572 79.6169 73.732 79.2729 73.844C78.9289 73.948 78.5369 74 78.0969 74H74.4729ZM75.7689 72.752H78.0249C78.5129 72.752 78.8929 72.644 79.1649 72.428C79.4369 72.212 79.5729 71.904 79.5729 71.504C79.5729 71.256 79.5049 71.044 79.3689 70.868C79.2409 70.692 79.0569 70.56 78.8169 70.472C78.5769 70.376 78.2929 70.328 77.9649 70.328H75.7689V72.752ZM75.7689 69.08H77.9049C78.1449 69.08 78.3569 69.032 78.5409 68.936C78.7329 68.84 78.8809 68.708 78.9849 68.54C79.0969 68.372 79.1529 68.18 79.1529 67.964C79.1529 67.604 79.0329 67.328 78.7929 67.136C78.5529 66.944 78.2089 66.848 77.7609 66.848H75.7689V69.08ZM85.2571 74.12C84.6091 74.12 84.0331 73.984 83.5291 73.712C83.0331 73.432 82.6411 73.052 82.3531 72.572C82.0731 72.092 81.9331 71.54 81.9331 70.916C81.9331 70.42 82.0131 69.968 82.1731 69.56C82.3331 69.152 82.5531 68.8 82.8331 68.504C83.1211 68.2 83.4611 67.968 83.8531 67.808C84.2531 67.64 84.6851 67.556 85.1491 67.556C85.5571 67.556 85.9371 67.636 86.2891 67.796C86.6411 67.948 86.9451 68.16 87.2011 68.432C87.4651 68.704 87.6651 69.028 87.8011 69.404C87.9451 69.772 88.0131 70.176 88.0051 70.616L87.9931 71.144H82.8451L82.5691 70.16H86.9251L86.7451 70.364V70.076C86.7211 69.812 86.6331 69.576 86.4811 69.368C86.3291 69.16 86.1371 68.996 85.9051 68.876C85.6731 68.756 85.4211 68.696 85.1491 68.696C84.7171 68.696 84.3531 68.78 84.0571 68.948C83.7611 69.108 83.5371 69.348 83.3851 69.668C83.2331 69.98 83.1571 70.368 83.1571 70.832C83.1571 71.272 83.2491 71.656 83.4331 71.984C83.6171 72.304 83.8771 72.552 84.2131 72.728C84.5491 72.904 84.9371 72.992 85.3771 72.992C85.6891 72.992 85.9771 72.94 86.2411 72.836C86.5131 72.732 86.8051 72.544 87.1171 72.272L87.7411 73.148C87.5491 73.34 87.3131 73.508 87.0331 73.652C86.7611 73.796 86.4691 73.912 86.1571 74C85.8531 74.08 85.5531 74.12 85.2571 74.12ZM92.1098 76.76C91.6618 76.76 91.2138 76.688 90.7658 76.544C90.3258 76.408 89.9698 76.228 89.6978 76.004L90.1538 75.044C90.3938 75.228 90.6898 75.376 91.0418 75.488C91.4018 75.6 91.7578 75.656 92.1098 75.656C92.5498 75.656 92.9178 75.584 93.2138 75.44C93.5098 75.296 93.7338 75.084 93.8858 74.804C94.0378 74.524 94.1138 74.176 94.1138 73.76V72.548L94.2458 72.632C94.2058 72.88 94.0738 73.12 93.8498 73.352C93.6338 73.576 93.3618 73.76 93.0338 73.904C92.7058 74.048 92.3698 74.12 92.0258 74.12C91.4258 74.12 90.8898 73.98 90.4178 73.7C89.9538 73.412 89.5858 73.024 89.3138 72.536C89.0418 72.04 88.9058 71.476 88.9058 70.844C88.9058 70.212 89.0378 69.652 89.3018 69.164C89.5738 68.668 89.9418 68.28 90.4058 68C90.8778 67.712 91.4058 67.568 91.9898 67.568C92.2298 67.568 92.4618 67.6 92.6858 67.664C92.9098 67.72 93.1178 67.804 93.3098 67.916C93.5018 68.02 93.6738 68.136 93.8258 68.264C93.9778 68.392 94.1018 68.528 94.1978 68.672C94.2938 68.816 94.3538 68.952 94.3778 69.08L94.1138 69.176V67.7H95.3498V73.616C95.3498 74.12 95.2738 74.564 95.1218 74.948C94.9778 75.34 94.7658 75.668 94.4858 75.932C94.2058 76.204 93.8658 76.408 93.4658 76.544C93.0658 76.688 92.6138 76.76 92.1098 76.76ZM92.1578 72.98C92.5498 72.98 92.8978 72.888 93.2018 72.704C93.5058 72.52 93.7418 72.268 93.9098 71.948C94.0778 71.628 94.1618 71.26 94.1618 70.844C94.1618 70.428 94.0738 70.06 93.8978 69.74C93.7298 69.412 93.4938 69.156 93.1898 68.972C92.8938 68.788 92.5498 68.696 92.1578 68.696C91.7738 68.696 91.4298 68.792 91.1258 68.984C90.8298 69.168 90.5938 69.424 90.4178 69.752C90.2498 70.072 90.1658 70.436 90.1658 70.844C90.1658 71.252 90.2498 71.62 90.4178 71.948C90.5938 72.268 90.8298 72.52 91.1258 72.704C91.4298 72.888 91.7738 72.98 92.1578 72.98ZM97.2868 74V67.7H98.5228V74H97.2868ZM97.8868 66.308C97.6228 66.308 97.4188 66.24 97.2748 66.104C97.1308 65.968 97.0588 65.776 97.0588 65.528C97.0588 65.296 97.1308 65.108 97.2748 64.964C97.4268 64.82 97.6308 64.748 97.8868 64.748C98.1508 64.748 98.3548 64.816 98.4988 64.952C98.6428 65.088 98.7148 65.28 98.7148 65.528C98.7148 65.76 98.6388 65.948 98.4868 66.092C98.3428 66.236 98.1428 66.308 97.8868 66.308ZM100.423 74V67.7H101.659V68.996L101.443 69.14C101.523 68.86 101.679 68.604 101.911 68.372C102.143 68.132 102.419 67.94 102.739 67.796C103.059 67.644 103.387 67.568 103.723 67.568C104.203 67.568 104.603 67.664 104.923 67.856C105.243 68.04 105.483 68.324 105.643 68.708C105.803 69.092 105.883 69.576 105.883 70.16V74H104.647V70.244C104.647 69.884 104.599 69.588 104.503 69.356C104.407 69.116 104.259 68.944 104.059 68.84C103.859 68.728 103.611 68.68 103.315 68.696C103.075 68.696 102.855 68.736 102.655 68.816C102.455 68.888 102.279 68.992 102.127 69.128C101.983 69.264 101.867 69.424 101.779 69.608C101.699 69.784 101.659 69.976 101.659 70.184V74H101.047C100.943 74 100.839 74 100.735 74C100.631 74 100.527 74 100.423 74ZM107.559 74V67.7H108.795V68.996L108.579 69.14C108.659 68.86 108.815 68.604 109.047 68.372C109.279 68.132 109.555 67.94 109.875 67.796C110.195 67.644 110.523 67.568 110.859 67.568C111.339 67.568 111.739 67.664 112.059 67.856C112.379 68.04 112.619 68.324 112.779 68.708C112.939 69.092 113.019 69.576 113.019 70.16V74H111.783V70.244C111.783 69.884 111.735 69.588 111.639 69.356C111.543 69.116 111.395 68.944 111.195 68.84C110.995 68.728 110.747 68.68 110.451 68.696C110.211 68.696 109.991 68.736 109.791 68.816C109.591 68.888 109.415 68.992 109.263 69.128C109.119 69.264 109.003 69.424 108.915 69.608C108.835 69.784 108.795 69.976 108.795 70.184V74H108.183C108.079 74 107.975 74 107.871 74C107.767 74 107.663 74 107.559 74ZM117.636 74.12C116.988 74.12 116.412 73.984 115.908 73.712C115.412 73.432 115.02 73.052 114.732 72.572C114.452 72.092 114.312 71.54 114.312 70.916C114.312 70.42 114.392 69.968 114.552 69.56C114.712 69.152 114.932 68.8 115.212 68.504C115.5 68.2 115.84 67.968 116.232 67.808C116.632 67.64 117.064 67.556 117.528 67.556C117.936 67.556 118.316 67.636 118.668 67.796C119.02 67.948 119.324 68.16 119.58 68.432C119.844 68.704 120.044 69.028 120.18 69.404C120.324 69.772 120.392 70.176 120.384 70.616L120.372 71.144H115.224L114.948 70.16H119.304L119.124 70.364V70.076C119.1 69.812 119.012 69.576 118.86 69.368C118.708 69.16 118.516 68.996 118.284 68.876C118.052 68.756 117.8 68.696 117.528 68.696C117.096 68.696 116.732 68.78 116.436 68.948C116.14 69.108 115.916 69.348 115.764 69.668C115.612 69.98 115.536 70.368 115.536 70.832C115.536 71.272 115.628 71.656 115.812 71.984C115.996 72.304 116.256 72.552 116.592 72.728C116.928 72.904 117.316 72.992 117.756 72.992C118.068 72.992 118.356 72.94 118.62 72.836C118.892 72.732 119.184 72.544 119.496 72.272L120.12 73.148C119.928 73.34 119.692 73.508 119.412 73.652C119.14 73.796 118.848 73.912 118.536 74C118.232 74.08 117.932 74.12 117.636 74.12ZM121.727 74V67.7H122.975V69.68L122.855 69.2C122.943 68.896 123.091 68.62 123.299 68.372C123.515 68.124 123.759 67.928 124.031 67.784C124.311 67.64 124.599 67.568 124.895 67.568C125.031 67.568 125.159 67.58 125.279 67.604C125.407 67.628 125.507 67.656 125.579 67.688L125.255 69.032C125.159 68.992 125.051 68.96 124.931 68.936C124.819 68.904 124.707 68.888 124.595 68.888C124.379 68.888 124.171 68.932 123.971 69.02C123.779 69.1 123.607 69.216 123.455 69.368C123.311 69.512 123.195 69.684 123.107 69.884C123.019 70.076 122.975 70.288 122.975 70.52V74H121.727ZM76.6629 86L76.2669 85.016L78.8349 82.124C78.9709 81.98 79.1109 81.816 79.2549 81.632C79.4069 81.44 79.5509 81.244 79.6869 81.044C79.8229 80.844 79.9309 80.648 80.0109 80.456C80.0989 80.256 80.1429 80.068 80.1429 79.892C80.1429 79.636 80.0909 79.42 79.9869 79.244C79.8909 79.06 79.7469 78.92 79.5549 78.824C79.3709 78.728 79.1469 78.68 78.8829 78.68C78.6509 78.68 78.4229 78.748 78.1989 78.884C77.9749 79.02 77.7709 79.212 77.5869 79.46C77.4029 79.708 77.2589 79.996 77.1549 80.324L76.1589 79.7C76.2949 79.236 76.4989 78.84 76.7709 78.512C77.0509 78.176 77.3829 77.92 77.7669 77.744C78.1589 77.568 78.5829 77.48 79.0389 77.48C79.5109 77.48 79.9309 77.58 80.2989 77.78C80.6669 77.972 80.9549 78.244 81.1629 78.596C81.3709 78.94 81.4749 79.34 81.4749 79.796C81.4749 80.028 81.4429 80.268 81.3789 80.516C81.3149 80.756 81.2109 81.008 81.0669 81.272C80.9309 81.536 80.7549 81.816 80.5389 82.112C80.3229 82.4 80.0629 82.708 79.7589 83.036L77.8509 85.112L77.6109 84.752H81.7389V86H76.6629ZM82.6611 83.18V82.1H88.6731V83.18H82.6611ZM85.0251 85.496V79.7H86.2851V85.496H85.0251ZM94.4942 88.76L95.7662 85.82L95.7782 86.804L92.6342 79.7H94.0742L96.0422 84.332C96.0822 84.412 96.1302 84.536 96.1862 84.704C96.2422 84.864 96.2902 85.024 96.3302 85.184L96.0182 85.256C96.0822 85.088 96.1422 84.92 96.1982 84.752C96.2622 84.584 96.3222 84.416 96.3782 84.248L98.0222 79.7H99.4862L96.8942 86L95.8262 88.76H94.4942ZM103.234 86.12C102.586 86.12 102.01 85.984 101.506 85.712C101.01 85.432 100.618 85.052 100.33 84.572C100.05 84.092 99.9097 83.54 99.9097 82.916C99.9097 82.42 99.9897 81.968 100.15 81.56C100.31 81.152 100.53 80.8 100.81 80.504C101.098 80.2 101.438 79.968 101.83 79.808C102.23 79.64 102.662 79.556 103.126 79.556C103.534 79.556 103.914 79.636 104.266 79.796C104.618 79.948 104.922 80.16 105.178 80.432C105.442 80.704 105.642 81.028 105.778 81.404C105.922 81.772 105.99 82.176 105.982 82.616L105.97 83.144H100.822L100.546 82.16H104.902L104.722 82.364V82.076C104.698 81.812 104.61 81.576 104.458 81.368C104.306 81.16 104.114 80.996 103.882 80.876C103.65 80.756 103.398 80.696 103.126 80.696C102.694 80.696 102.33 80.78 102.034 80.948C101.738 81.108 101.514 81.348 101.362 81.668C101.21 81.98 101.134 82.368 101.134 82.832C101.134 83.272 101.226 83.656 101.41 83.984C101.594 84.304 101.854 84.552 102.19 84.728C102.526 84.904 102.914 84.992 103.354 84.992C103.666 84.992 103.954 84.94 104.218 84.836C104.49 84.732 104.782 84.544 105.094 84.272L105.718 85.148C105.526 85.34 105.29 85.508 105.01 85.652C104.738 85.796 104.446 85.912 104.134 86C103.83 86.08 103.53 86.12 103.234 86.12ZM111.057 86V81.896C111.057 81.544 110.929 81.26 110.673 81.044C110.425 80.82 110.109 80.708 109.725 80.708C109.373 80.708 109.053 80.78 108.765 80.924C108.485 81.068 108.229 81.288 107.997 81.584L107.193 80.78C107.569 80.372 107.973 80.068 108.405 79.868C108.845 79.668 109.317 79.568 109.821 79.568C110.301 79.568 110.717 79.648 111.069 79.808C111.421 79.968 111.693 80.204 111.885 80.516C112.077 80.82 112.173 81.192 112.173 81.632V86H111.057ZM109.173 86.12C108.765 86.12 108.401 86.04 108.081 85.88C107.761 85.72 107.505 85.5 107.313 85.22C107.129 84.932 107.037 84.596 107.037 84.212C107.037 83.876 107.097 83.58 107.217 83.324C107.337 83.068 107.513 82.856 107.745 82.688C107.985 82.52 108.281 82.392 108.633 82.304C108.993 82.216 109.405 82.172 109.869 82.172H111.621L111.513 83.156H109.713C109.473 83.156 109.257 83.18 109.065 83.228C108.881 83.268 108.721 83.336 108.585 83.432C108.457 83.52 108.361 83.628 108.297 83.756C108.233 83.876 108.201 84.02 108.201 84.188C108.201 84.364 108.245 84.52 108.333 84.656C108.421 84.784 108.541 84.884 108.693 84.956C108.845 85.028 109.021 85.064 109.221 85.064C109.509 85.064 109.781 85.016 110.037 84.92C110.301 84.816 110.533 84.676 110.733 84.5C110.941 84.324 111.101 84.128 111.213 83.912L111.501 84.716C111.333 84.996 111.125 85.24 110.877 85.448C110.629 85.656 110.361 85.82 110.073 85.94C109.785 86.06 109.485 86.12 109.173 86.12ZM113.735 86V79.7H114.983V81.68L114.863 81.2C114.951 80.896 115.099 80.62 115.307 80.372C115.523 80.124 115.767 79.928 116.039 79.784C116.319 79.64 116.607 79.568 116.903 79.568C117.039 79.568 117.167 79.58 117.287 79.604C117.415 79.628 117.515 79.656 117.587 79.688L117.263 81.032C117.167 80.992 117.059 80.96 116.939 80.936C116.827 80.904 116.715 80.888 116.603 80.888C116.387 80.888 116.179 80.932 115.979 81.02C115.787 81.1 115.615 81.216 115.463 81.368C115.319 81.512 115.203 81.684 115.115 81.884C115.027 82.076 114.983 82.288 114.983 82.52V86H113.735ZM120.675 86.12C120.147 86.12 119.671 86.028 119.247 85.844C118.823 85.66 118.471 85.388 118.191 85.028L119.031 84.308C119.271 84.588 119.531 84.792 119.811 84.92C120.099 85.04 120.423 85.1 120.783 85.1C120.927 85.1 121.059 85.084 121.179 85.052C121.307 85.012 121.415 84.956 121.503 84.884C121.599 84.812 121.671 84.728 121.719 84.632C121.767 84.528 121.791 84.416 121.791 84.296C121.791 84.088 121.715 83.92 121.563 83.792C121.483 83.736 121.355 83.676 121.179 83.612C121.011 83.54 120.791 83.468 120.519 83.396C120.055 83.276 119.675 83.14 119.379 82.988C119.083 82.836 118.855 82.664 118.695 82.472C118.575 82.32 118.487 82.156 118.431 81.98C118.375 81.796 118.347 81.596 118.347 81.38C118.347 81.028 118.447 80.716 118.647 80.444C118.847 80.172 119.115 79.96 119.451 79.808C119.795 79.648 120.179 79.568 120.603 79.568C120.899 79.568 121.191 79.608 121.479 79.688C121.775 79.768 122.047 79.884 122.295 80.036C122.543 80.188 122.751 80.368 122.919 80.576L122.211 81.356C122.059 81.204 121.891 81.072 121.707 80.96C121.531 80.84 121.351 80.748 121.167 80.684C120.983 80.62 120.815 80.588 120.663 80.588C120.495 80.588 120.343 80.604 120.207 80.636C120.071 80.668 119.955 80.716 119.859 80.78C119.771 80.844 119.703 80.924 119.655 81.02C119.607 81.116 119.583 81.224 119.583 81.344C119.591 81.448 119.615 81.548 119.655 81.644C119.703 81.732 119.767 81.808 119.847 81.872C119.935 81.936 120.067 82.004 120.243 82.076C120.419 82.148 120.643 82.216 120.915 82.28C121.315 82.384 121.643 82.5 121.899 82.628C122.163 82.748 122.371 82.888 122.523 83.048C122.683 83.2 122.795 83.376 122.859 83.576C122.923 83.776 122.955 84 122.955 84.248C122.955 84.608 122.851 84.932 122.643 85.22C122.443 85.5 122.171 85.72 121.827 85.88C121.483 86.04 121.099 86.12 120.675 86.12Z" fill="black"/>
<defs>
<linearGradient id="paint0_linear_2_16" x1="45.5645" y1="34.8677" x2="143.279" y2="132.582" gradientUnits="userSpaceOnUse">
<stop stop-color="#A5A5FF"/>
<stop offset="1" stop-color="#5A5ABE"/>
</linearGradient>
</defs>
</svg>
