<svg width="198" height="198" viewBox="0 0 198 198" fill="none" xmlns="http://www.w3.org/2000/svg">
<rect width="198" height="198" fill="white"/>
<path d="M80.92 150.78V160.3H82.42V152.26H95.48V160.2H97.04V150.78H80.92ZM81.72 157.58V159.04H96.38V157.58H81.72ZM88.16 147.2V165.58H89.72V147.2H88.16ZM113.48 151.36C111.24 158.22 106.9 162.14 99.76 164.18C100.08 164.54 100.56 165.26 100.72 165.64C108 163.28 112.54 159.16 115.06 151.82L113.48 151.36ZM104.4 151.46L102.92 151.92C105.38 158.92 109.78 163.68 117.2 165.62C117.44 165.18 117.92 164.5 118.28 164.14C111.06 162.46 106.56 157.86 104.4 151.46ZM100 150.6V152.08H118.08V150.6H100ZM108.2 147.2V151.5H109.74V147.2H108.2ZM75.9731 184.12C75.2851 184.12 74.6771 183.984 74.1491 183.712C73.6291 183.44 73.1811 183.032 72.8051 182.488L73.6931 181.468C74.0851 182.028 74.4611 182.416 74.8211 182.632C75.1811 182.848 75.6091 182.956 76.1051 182.956C76.4091 182.956 76.6851 182.908 76.9331 182.812C77.1811 182.716 77.3771 182.584 77.5211 182.416C77.6651 182.248 77.7371 182.056 77.7371 181.84C77.7371 181.696 77.7131 181.56 77.6651 181.432C77.6171 181.304 77.5411 181.188 77.4371 181.084C77.3411 180.98 77.2131 180.884 77.0531 180.796C76.9011 180.708 76.7211 180.632 76.5131 180.568C76.3051 180.496 76.0651 180.436 75.7931 180.388C75.3611 180.3 74.9851 180.184 74.6651 180.04C74.3451 179.896 74.0771 179.716 73.8611 179.5C73.6451 179.284 73.4851 179.04 73.3811 178.768C73.2771 178.488 73.2251 178.176 73.2251 177.832C73.2251 177.376 73.3531 176.972 73.6091 176.62C73.8651 176.268 74.2091 175.992 74.6411 175.792C75.0811 175.584 75.5731 175.48 76.1171 175.48C76.7651 175.48 77.3291 175.608 77.8091 175.864C78.2971 176.112 78.6811 176.476 78.9611 176.956L78.0491 177.856C77.8091 177.464 77.5211 177.164 77.1851 176.956C76.8571 176.748 76.4891 176.644 76.0811 176.644C75.7691 176.644 75.4971 176.692 75.2651 176.788C75.0331 176.884 74.8491 177.02 74.7131 177.196C74.5851 177.364 74.5211 177.564 74.5211 177.796C74.5211 177.964 74.5531 178.12 74.6171 178.264C74.6811 178.4 74.7771 178.524 74.9051 178.636C75.0411 178.74 75.2211 178.836 75.4451 178.924C75.6691 179.004 75.9371 179.076 76.2491 179.14C76.6891 179.236 77.0811 179.36 77.4251 179.512C77.7691 179.656 78.0611 179.828 78.3011 180.028C78.5411 180.228 78.7211 180.452 78.8411 180.7C78.9691 180.948 79.0331 181.216 79.0331 181.504C79.0331 182.04 78.9091 182.504 78.6611 182.896C78.4131 183.288 78.0611 183.592 77.6051 183.808C77.1491 184.016 76.6051 184.12 75.9731 184.12ZM80.5574 186.64V177.7H81.8054V179.14L81.6134 179.032C81.6614 178.792 81.7974 178.564 82.0214 178.348C82.2454 178.124 82.5174 177.944 82.8374 177.808C83.1654 177.664 83.5014 177.592 83.8454 177.592C84.4134 177.592 84.9174 177.732 85.3574 178.012C85.7974 178.292 86.1454 178.676 86.4014 179.164C86.6574 179.652 86.7854 180.212 86.7854 180.844C86.7854 181.468 86.6574 182.028 86.4014 182.524C86.1534 183.012 85.8094 183.4 85.3694 183.688C84.9294 183.968 84.4334 184.108 83.8814 184.108C83.5134 184.108 83.1574 184.036 82.8134 183.892C82.4694 183.74 82.1774 183.548 81.9374 183.316C81.6974 183.084 81.5494 182.844 81.4934 182.596L81.8054 182.428V186.64H80.5574ZM83.6774 182.968C84.0454 182.968 84.3734 182.876 84.6614 182.692C84.9494 182.508 85.1774 182.256 85.3454 181.936C85.5134 181.616 85.5974 181.252 85.5974 180.844C85.5974 180.436 85.5134 180.076 85.3454 179.764C85.1854 179.444 84.9614 179.192 84.6734 179.008C84.3854 178.824 84.0534 178.732 83.6774 178.732C83.3014 178.732 82.9694 178.824 82.6814 179.008C82.3934 179.184 82.1654 179.432 81.9974 179.752C81.8294 180.072 81.7454 180.436 81.7454 180.844C81.7454 181.252 81.8294 181.616 81.9974 181.936C82.1654 182.256 82.3934 182.508 82.6814 182.692C82.9694 182.876 83.3014 182.968 83.6774 182.968ZM91.0677 184.12C90.4197 184.12 89.8437 183.984 89.3397 183.712C88.8437 183.432 88.4517 183.052 88.1637 182.572C87.8837 182.092 87.7437 181.54 87.7437 180.916C87.7437 180.42 87.8237 179.968 87.9837 179.56C88.1437 179.152 88.3637 178.8 88.6437 178.504C88.9317 178.2 89.2717 177.968 89.6637 177.808C90.0637 177.64 90.4957 177.556 90.9597 177.556C91.3677 177.556 91.7477 177.636 92.0997 177.796C92.4517 177.948 92.7557 178.16 93.0117 178.432C93.2757 178.704 93.4757 179.028 93.6117 179.404C93.7557 179.772 93.8237 180.176 93.8157 180.616L93.8037 181.144H88.6557L88.3797 180.16H92.7357L92.5557 180.364V180.076C92.5317 179.812 92.4437 179.576 92.2917 179.368C92.1397 179.16 91.9477 178.996 91.7157 178.876C91.4837 178.756 91.2317 178.696 90.9597 178.696C90.5277 178.696 90.1637 178.78 89.8677 178.948C89.5717 179.108 89.3477 179.348 89.1957 179.668C89.0437 179.98 88.9677 180.368 88.9677 180.832C88.9677 181.272 89.0597 181.656 89.2437 181.984C89.4277 182.304 89.6877 182.552 90.0237 182.728C90.3597 182.904 90.7477 182.992 91.1877 182.992C91.4997 182.992 91.7877 182.94 92.0517 182.836C92.3237 182.732 92.6157 182.544 92.9277 182.272L93.5517 183.148C93.3597 183.34 93.1237 183.508 92.8437 183.652C92.5717 183.796 92.2797 183.912 91.9677 184C91.6637 184.08 91.3637 184.12 91.0677 184.12ZM98.8909 184V179.896C98.8909 179.544 98.7629 179.26 98.5069 179.044C98.2589 178.82 97.9429 178.708 97.5589 178.708C97.2069 178.708 96.8869 178.78 96.5989 178.924C96.3189 179.068 96.0629 179.288 95.8309 179.584L95.0269 178.78C95.4029 178.372 95.8069 178.068 96.2389 177.868C96.6789 177.668 97.1509 177.568 97.6549 177.568C98.1349 177.568 98.5509 177.648 98.9029 177.808C99.2549 177.968 99.5269 178.204 99.7189 178.516C99.9109 178.82 100.007 179.192 100.007 179.632V184H98.8909ZM97.0069 184.12C96.5989 184.12 96.2349 184.04 95.9149 183.88C95.5949 183.72 95.3389 183.5 95.1469 183.22C94.9629 182.932 94.8709 182.596 94.8709 182.212C94.8709 181.876 94.9309 181.58 95.0509 181.324C95.1709 181.068 95.3469 180.856 95.5789 180.688C95.8189 180.52 96.1149 180.392 96.4669 180.304C96.8269 180.216 97.2389 180.172 97.7029 180.172H99.4549L99.3469 181.156H97.5469C97.3069 181.156 97.0909 181.18 96.8989 181.228C96.7149 181.268 96.5549 181.336 96.4189 181.432C96.2909 181.52 96.1949 181.628 96.1309 181.756C96.0669 181.876 96.0349 182.02 96.0349 182.188C96.0349 182.364 96.0789 182.52 96.1669 182.656C96.2549 182.784 96.3749 182.884 96.5269 182.956C96.6789 183.028 96.8549 183.064 97.0549 183.064C97.3429 183.064 97.6149 183.016 97.8709 182.92C98.1349 182.816 98.3669 182.676 98.5669 182.5C98.7749 182.324 98.9349 182.128 99.0469 181.912L99.3349 182.716C99.1669 182.996 98.9589 183.24 98.7109 183.448C98.4629 183.656 98.1949 183.82 97.9069 183.94C97.6189 184.06 97.3189 184.12 97.0069 184.12ZM102.697 182.032L102.637 180.688L105.649 177.7H107.317L102.697 182.032ZM101.569 184V175.12H102.805V184H101.569ZM105.817 184L103.441 181.228L104.317 180.424L107.401 184H105.817ZM108.593 184V177.7H109.829V184H108.593ZM109.193 176.308C108.929 176.308 108.725 176.24 108.581 176.104C108.437 175.968 108.365 175.776 108.365 175.528C108.365 175.296 108.437 175.108 108.581 174.964C108.733 174.82 108.937 174.748 109.193 174.748C109.457 174.748 109.661 174.816 109.805 174.952C109.949 175.088 110.021 175.28 110.021 175.528C110.021 175.76 109.945 175.948 109.793 176.092C109.649 176.236 109.449 176.308 109.193 176.308ZM111.729 184V177.7H112.965V178.996L112.749 179.14C112.829 178.86 112.985 178.604 113.217 178.372C113.449 178.132 113.725 177.94 114.045 177.796C114.365 177.644 114.693 177.568 115.029 177.568C115.509 177.568 115.909 177.664 116.229 177.856C116.549 178.04 116.789 178.324 116.949 178.708C117.109 179.092 117.189 179.576 117.189 180.16V184H115.953V180.244C115.953 179.884 115.905 179.588 115.809 179.356C115.713 179.116 115.565 178.944 115.365 178.84C115.165 178.728 114.917 178.68 114.621 178.696C114.381 178.696 114.161 178.736 113.961 178.816C113.761 178.888 113.585 178.992 113.433 179.128C113.289 179.264 113.173 179.424 113.085 179.608C113.005 179.784 112.965 179.976 112.965 180.184V184H112.353C112.249 184 112.145 184 112.041 184C111.937 184 111.833 184 111.729 184ZM121.686 186.76C121.238 186.76 120.79 186.688 120.342 186.544C119.902 186.408 119.546 186.228 119.274 186.004L119.73 185.044C119.97 185.228 120.266 185.376 120.618 185.488C120.978 185.6 121.334 185.656 121.686 185.656C122.126 185.656 122.494 185.584 122.79 185.44C123.086 185.296 123.31 185.084 123.462 184.804C123.614 184.524 123.69 184.176 123.69 183.76V182.548L123.822 182.632C123.782 182.88 123.65 183.12 123.426 183.352C123.21 183.576 122.938 183.76 122.61 183.904C122.282 184.048 121.946 184.12 121.602 184.12C121.002 184.12 120.466 183.98 119.994 183.7C119.53 183.412 119.162 183.024 118.89 182.536C118.618 182.04 118.482 181.476 118.482 180.844C118.482 180.212 118.614 179.652 118.878 179.164C119.15 178.668 119.518 178.28 119.982 178C120.454 177.712 120.982 177.568 121.566 177.568C121.806 177.568 122.038 177.6 122.262 177.664C122.486 177.72 122.694 177.804 122.886 177.916C123.078 178.02 123.25 178.136 123.402 178.264C123.554 178.392 123.678 178.528 123.774 178.672C123.87 178.816 123.93 178.952 123.954 179.08L123.69 179.176V177.7H124.926V183.616C124.926 184.12 124.85 184.564 124.698 184.948C124.554 185.34 124.342 185.668 124.062 185.932C123.782 186.204 123.442 186.408 123.042 186.544C122.642 186.688 122.19 186.76 121.686 186.76ZM121.734 182.98C122.126 182.98 122.474 182.888 122.778 182.704C123.082 182.52 123.318 182.268 123.486 181.948C123.654 181.628 123.738 181.26 123.738 180.844C123.738 180.428 123.65 180.06 123.474 179.74C123.306 179.412 123.07 179.156 122.766 178.972C122.47 178.788 122.126 178.696 121.734 178.696C121.35 178.696 121.006 178.792 120.702 178.984C120.406 179.168 120.17 179.424 119.994 179.752C119.826 180.072 119.742 180.436 119.742 180.844C119.742 181.252 119.826 181.62 119.994 181.948C120.17 182.268 120.406 182.52 120.702 182.704C121.006 182.888 121.35 182.98 121.734 182.98Z" fill="black"/>
<path fill-rule="evenodd" clip-rule="evenodd" d="M98.5853 134.171C132.369 134.171 159.756 106.784 159.756 73C159.756 39.2164 132.369 11.8294 98.5853 11.8294C64.8017 11.8294 37.4147 39.2164 37.4147 73C37.4147 106.784 64.8017 134.171 98.5853 134.171ZM98.5853 118.878C123.923 118.878 144.463 98.3377 144.463 73C144.463 47.6623 123.923 27.122 98.5853 27.122C73.2476 27.122 52.7073 47.6623 52.7073 73C52.7073 98.3377 73.2476 118.878 98.5853 118.878Z" fill="url(#paint0_linear_2_2)"/>
<path d="M98.5 135C82.1892 135 66.5464 128.468 55.0129 116.841C43.4795 105.213 37 89.4434 37 73C37 56.5566 43.4794 40.7866 55.0129 29.1594C66.5464 17.5321 82.1892 11 98.5 11L98.5 73L98.5 135Z" fill="white" fill-opacity="0.7"/>
<path d="M62.2136 74V72.8H63.5696V66.8H62.2136V65.6H66.2216V66.8H64.8656V72.8H66.2216V74H62.2136ZM67.9441 74V67.7H69.1801V68.996L68.9641 69.14C69.0441 68.86 69.2001 68.604 69.4321 68.372C69.6641 68.132 69.9401 67.94 70.2601 67.796C70.5801 67.644 70.9081 67.568 71.2441 67.568C71.7241 67.568 72.1241 67.664 72.4441 67.856C72.7641 68.04 73.0041 68.324 73.1641 68.708C73.3241 69.092 73.4041 69.576 73.4041 70.16V74H72.1681V70.244C72.1681 69.884 72.1201 69.588 72.0241 69.356C71.9281 69.116 71.7801 68.944 71.5801 68.84C71.3801 68.728 71.1321 68.68 70.8361 68.696C70.5961 68.696 70.3761 68.736 70.1761 68.816C69.9761 68.888 69.8001 68.992 69.6481 69.128C69.5041 69.264 69.3881 69.424 69.3001 69.608C69.2201 69.784 69.1801 69.976 69.1801 70.184V74H68.5681C68.4641 74 68.3601 74 68.2561 74C68.1521 74 68.0481 74 67.9441 74ZM75.8608 74V66.092H77.0968V74H75.8608ZM74.5528 68.9V67.7H78.5608V68.9H74.5528ZM82.5677 74.12C81.9197 74.12 81.3437 73.984 80.8397 73.712C80.3437 73.432 79.9517 73.052 79.6637 72.572C79.3837 72.092 79.2437 71.54 79.2437 70.916C79.2437 70.42 79.3237 69.968 79.4837 69.56C79.6437 69.152 79.8637 68.8 80.1437 68.504C80.4317 68.2 80.7717 67.968 81.1637 67.808C81.5637 67.64 81.9957 67.556 82.4597 67.556C82.8677 67.556 83.2477 67.636 83.5997 67.796C83.9517 67.948 84.2557 68.16 84.5117 68.432C84.7757 68.704 84.9757 69.028 85.1117 69.404C85.2557 69.772 85.3237 70.176 85.3157 70.616L85.3037 71.144H80.1557L79.8797 70.16H84.2357L84.0557 70.364V70.076C84.0317 69.812 83.9437 69.576 83.7917 69.368C83.6397 69.16 83.4477 68.996 83.2157 68.876C82.9837 68.756 82.7317 68.696 82.4597 68.696C82.0277 68.696 81.6637 68.78 81.3677 68.948C81.0717 69.108 80.8477 69.348 80.6957 69.668C80.5437 69.98 80.4677 70.368 80.4677 70.832C80.4677 71.272 80.5597 71.656 80.7437 71.984C80.9277 72.304 81.1877 72.552 81.5237 72.728C81.8597 72.904 82.2477 72.992 82.6877 72.992C82.9997 72.992 83.2877 72.94 83.5517 72.836C83.8237 72.732 84.1157 72.544 84.4277 72.272L85.0517 73.148C84.8597 73.34 84.6237 73.508 84.3437 73.652C84.0717 73.796 83.7797 73.912 83.4677 74C83.1637 74.08 82.8637 74.12 82.5677 74.12ZM86.6589 74V67.7H87.9069V69.68L87.7869 69.2C87.8749 68.896 88.0229 68.62 88.2309 68.372C88.4469 68.124 88.6909 67.928 88.9629 67.784C89.2429 67.64 89.5309 67.568 89.8269 67.568C89.9629 67.568 90.0909 67.58 90.2109 67.604C90.3389 67.628 90.4389 67.656 90.5109 67.688L90.1869 69.032C90.0909 68.992 89.9829 68.96 89.8629 68.936C89.7509 68.904 89.6389 68.888 89.5269 68.888C89.3109 68.888 89.1029 68.932 88.9029 69.02C88.7109 69.1 88.5389 69.216 88.3869 69.368C88.2429 69.512 88.1269 69.684 88.0389 69.884C87.9509 70.076 87.9069 70.288 87.9069 70.52V74H86.6589ZM91.4748 74V67.7H92.7228V69.044L92.4948 69.188C92.5588 68.98 92.6588 68.78 92.7948 68.588C92.9388 68.396 93.1108 68.228 93.3108 68.084C93.5188 67.932 93.7388 67.812 93.9708 67.724C94.2108 67.636 94.4548 67.592 94.7028 67.592C95.0628 67.592 95.3788 67.652 95.6508 67.772C95.9228 67.892 96.1468 68.072 96.3228 68.312C96.4988 68.552 96.6268 68.852 96.7068 69.212L96.5148 69.164L96.5988 68.96C96.6868 68.776 96.8068 68.604 96.9588 68.444C97.1188 68.276 97.2988 68.128 97.4988 68C97.6988 67.872 97.9108 67.772 98.1348 67.7C98.3588 67.628 98.5788 67.592 98.7948 67.592C99.2668 67.592 99.6548 67.688 99.9588 67.88C100.271 68.072 100.503 68.364 100.655 68.756C100.815 69.148 100.895 69.636 100.895 70.22V74H99.6468V70.292C99.6468 69.756 99.5428 69.364 99.3348 69.116C99.1348 68.86 98.8188 68.732 98.3868 68.732C98.1628 68.732 97.9508 68.772 97.7508 68.852C97.5588 68.924 97.3908 69.028 97.2468 69.164C97.1028 69.3 96.9908 69.46 96.9108 69.644C96.8308 69.82 96.7908 70.016 96.7908 70.232V74H95.5428V70.268C95.5428 69.772 95.4348 69.392 95.2188 69.128C95.0108 68.864 94.7068 68.732 94.3068 68.732C94.0828 68.732 93.8748 68.772 93.6828 68.852C93.4908 68.924 93.3228 69.028 93.1788 69.164C93.0348 69.292 92.9228 69.448 92.8428 69.632C92.7628 69.808 92.7228 70 92.7228 70.208V74H91.4748ZM105.49 74.12C104.842 74.12 104.266 73.984 103.762 73.712C103.266 73.432 102.874 73.052 102.586 72.572C102.306 72.092 102.166 71.54 102.166 70.916C102.166 70.42 102.246 69.968 102.406 69.56C102.566 69.152 102.786 68.8 103.066 68.504C103.354 68.2 103.694 67.968 104.086 67.808C104.486 67.64 104.918 67.556 105.382 67.556C105.79 67.556 106.17 67.636 106.522 67.796C106.874 67.948 107.178 68.16 107.434 68.432C107.698 68.704 107.898 69.028 108.034 69.404C108.178 69.772 108.246 70.176 108.238 70.616L108.226 71.144H103.078L102.802 70.16H107.158L106.978 70.364V70.076C106.954 69.812 106.866 69.576 106.714 69.368C106.562 69.16 106.37 68.996 106.138 68.876C105.906 68.756 105.654 68.696 105.382 68.696C104.95 68.696 104.586 68.78 104.29 68.948C103.994 69.108 103.77 69.348 103.618 69.668C103.466 69.98 103.39 70.368 103.39 70.832C103.39 71.272 103.482 71.656 103.666 71.984C103.85 72.304 104.11 72.552 104.446 72.728C104.782 72.904 105.17 72.992 105.61 72.992C105.922 72.992 106.21 72.94 106.474 72.836C106.746 72.732 107.038 72.544 107.35 72.272L107.974 73.148C107.782 73.34 107.546 73.508 107.266 73.652C106.994 73.796 106.702 73.912 106.39 74C106.086 74.08 105.786 74.12 105.49 74.12ZM112.209 74.12C111.633 74.12 111.117 73.98 110.661 73.7C110.213 73.412 109.857 73.024 109.593 72.536C109.329 72.04 109.197 71.476 109.197 70.844C109.197 70.212 109.325 69.652 109.581 69.164C109.845 68.668 110.201 68.28 110.649 68C111.097 67.712 111.605 67.568 112.173 67.568C112.485 67.568 112.785 67.62 113.073 67.724C113.369 67.82 113.633 67.956 113.865 68.132C114.097 68.3 114.277 68.488 114.405 68.696C114.541 68.896 114.609 69.1 114.609 69.308L114.249 69.332V65.12H115.485V74H114.249V72.5H114.489C114.489 72.692 114.425 72.884 114.297 73.076C114.169 73.26 113.997 73.432 113.781 73.592C113.573 73.752 113.329 73.88 113.049 73.976C112.777 74.072 112.497 74.12 112.209 74.12ZM112.377 73.052C112.753 73.052 113.085 72.956 113.373 72.764C113.661 72.572 113.885 72.312 114.045 71.984C114.213 71.648 114.297 71.268 114.297 70.844C114.297 70.42 114.213 70.044 114.045 69.716C113.885 69.38 113.661 69.116 113.373 68.924C113.085 68.732 112.753 68.636 112.377 68.636C112.001 68.636 111.669 68.732 111.381 68.924C111.093 69.116 110.865 69.38 110.697 69.716C110.537 70.044 110.457 70.42 110.457 70.844C110.457 71.268 110.537 71.648 110.697 71.984C110.865 72.312 111.093 72.572 111.381 72.764C111.669 72.956 112.001 73.052 112.377 73.052ZM117.39 74V67.7H118.626V74H117.39ZM117.99 66.308C117.726 66.308 117.522 66.24 117.378 66.104C117.234 65.968 117.162 65.776 117.162 65.528C117.162 65.296 117.234 65.108 117.378 64.964C117.53 64.82 117.734 64.748 117.99 64.748C118.254 64.748 118.458 64.816 118.602 64.952C118.746 65.088 118.818 65.28 118.818 65.528C118.818 65.76 118.742 65.948 118.59 66.092C118.446 66.236 118.246 66.308 117.99 66.308ZM124.258 74V69.896C124.258 69.544 124.13 69.26 123.874 69.044C123.626 68.82 123.31 68.708 122.926 68.708C122.574 68.708 122.254 68.78 121.966 68.924C121.686 69.068 121.43 69.288 121.198 69.584L120.394 68.78C120.77 68.372 121.174 68.068 121.606 67.868C122.046 67.668 122.518 67.568 123.022 67.568C123.502 67.568 123.918 67.648 124.27 67.808C124.622 67.968 124.894 68.204 125.086 68.516C125.278 68.82 125.374 69.192 125.374 69.632V74H124.258ZM122.374 74.12C121.966 74.12 121.602 74.04 121.282 73.88C120.962 73.72 120.706 73.5 120.514 73.22C120.33 72.932 120.238 72.596 120.238 72.212C120.238 71.876 120.298 71.58 120.418 71.324C120.538 71.068 120.714 70.856 120.946 70.688C121.186 70.52 121.482 70.392 121.834 70.304C122.194 70.216 122.606 70.172 123.07 70.172H124.822L124.714 71.156H122.914C122.674 71.156 122.458 71.18 122.266 71.228C122.082 71.268 121.922 71.336 121.786 71.432C121.658 71.52 121.562 71.628 121.498 71.756C121.434 71.876 121.402 72.02 121.402 72.188C121.402 72.364 121.446 72.52 121.534 72.656C121.622 72.784 121.742 72.884 121.894 72.956C122.046 73.028 122.222 73.064 122.422 73.064C122.71 73.064 122.982 73.016 123.238 72.92C123.502 72.816 123.734 72.676 123.934 72.5C124.142 72.324 124.302 72.128 124.414 71.912L124.702 72.716C124.534 72.996 124.326 73.24 124.078 73.448C123.83 73.656 123.562 73.82 123.274 73.94C122.986 74.06 122.686 74.12 122.374 74.12ZM127.716 74V66.092H128.952V74H127.716ZM126.408 68.9V67.7H130.416V68.9H126.408ZM134.423 74.12C133.775 74.12 133.199 73.984 132.695 73.712C132.199 73.432 131.807 73.052 131.519 72.572C131.239 72.092 131.099 71.54 131.099 70.916C131.099 70.42 131.179 69.968 131.339 69.56C131.499 69.152 131.719 68.8 131.999 68.504C132.287 68.2 132.627 67.968 133.019 67.808C133.419 67.64 133.851 67.556 134.315 67.556C134.723 67.556 135.103 67.636 135.455 67.796C135.807 67.948 136.111 68.16 136.367 68.432C136.631 68.704 136.831 69.028 136.967 69.404C137.111 69.772 137.179 70.176 137.171 70.616L137.159 71.144H132.011L131.735 70.16H136.091L135.911 70.364V70.076C135.887 69.812 135.799 69.576 135.647 69.368C135.495 69.16 135.303 68.996 135.071 68.876C134.839 68.756 134.587 68.696 134.315 68.696C133.883 68.696 133.519 68.78 133.223 68.948C132.927 69.108 132.703 69.348 132.551 69.668C132.399 69.98 132.323 70.368 132.323 70.832C132.323 71.272 132.415 71.656 132.599 71.984C132.783 72.304 133.043 72.552 133.379 72.728C133.715 72.904 134.103 72.992 134.543 72.992C134.855 72.992 135.143 72.94 135.407 72.836C135.679 72.732 135.971 72.544 136.283 72.272L136.907 73.148C136.715 73.34 136.479 73.508 136.199 73.652C135.927 73.796 135.635 73.912 135.323 74C135.019 74.08 134.719 74.12 134.423 74.12ZM74.7935 85.412V78.596L75.2375 78.932L73.5815 79.808L73.2335 78.68L75.4775 77.48H76.1015V85.412H74.7935ZM73.4615 86V84.752H77.4695V86H73.4615ZM81.8255 86.12C81.1855 86.12 80.6335 85.944 80.1695 85.592C79.7135 85.24 79.3615 84.744 79.1135 84.104C78.8655 83.456 78.7415 82.688 78.7415 81.8C78.7415 80.912 78.8655 80.148 79.1135 79.508C79.3615 78.86 79.7135 78.36 80.1695 78.008C80.6335 77.656 81.1855 77.48 81.8255 77.48C82.4655 77.48 83.0175 77.656 83.4815 78.008C83.9455 78.36 84.3015 78.86 84.5495 79.508C84.7975 80.148 84.9215 80.912 84.9215 81.8C84.9215 82.688 84.7975 83.456 84.5495 84.104C84.3015 84.744 83.9455 85.24 83.4815 85.592C83.0175 85.944 82.4655 86.12 81.8255 86.12ZM81.8255 84.944C82.4095 84.944 82.8615 84.672 83.1815 84.128C83.5015 83.576 83.6615 82.8 83.6615 81.8C83.6615 80.8 83.5015 80.028 83.1815 79.484C82.8615 78.932 82.4095 78.656 81.8255 78.656C81.2415 78.656 80.7895 78.932 80.4695 79.484C80.1495 80.028 79.9895 80.8 79.9895 81.8C79.9895 82.8 80.1495 83.576 80.4695 84.128C80.7895 84.672 81.2415 84.944 81.8255 84.944ZM86.0185 83.18V82.1H92.0305V83.18H86.0185ZM88.3825 85.496V79.7H89.6425V85.496H88.3825ZM97.8516 88.76L99.1236 85.82L99.1356 86.804L95.9916 79.7H97.4316L99.3996 84.332C99.4396 84.412 99.4876 84.536 99.5436 84.704C99.5996 84.864 99.6476 85.024 99.6876 85.184L99.3756 85.256C99.4396 85.088 99.4996 84.92 99.5556 84.752C99.6196 84.584 99.6796 84.416 99.7356 84.248L101.38 79.7H102.844L100.252 86L99.1836 88.76H97.8516ZM106.591 86.12C105.943 86.12 105.367 85.984 104.863 85.712C104.367 85.432 103.975 85.052 103.687 84.572C103.407 84.092 103.267 83.54 103.267 82.916C103.267 82.42 103.347 81.968 103.507 81.56C103.667 81.152 103.887 80.8 104.167 80.504C104.455 80.2 104.795 79.968 105.187 79.808C105.587 79.64 106.019 79.556 106.483 79.556C106.891 79.556 107.271 79.636 107.623 79.796C107.975 79.948 108.279 80.16 108.535 80.432C108.799 80.704 108.999 81.028 109.135 81.404C109.279 81.772 109.347 82.176 109.339 82.616L109.327 83.144H104.179L103.903 82.16H108.259L108.079 82.364V82.076C108.055 81.812 107.967 81.576 107.815 81.368C107.663 81.16 107.471 80.996 107.239 80.876C107.007 80.756 106.755 80.696 106.483 80.696C106.051 80.696 105.687 80.78 105.391 80.948C105.095 81.108 104.871 81.348 104.719 81.668C104.567 81.98 104.491 82.368 104.491 82.832C104.491 83.272 104.583 83.656 104.767 83.984C104.951 84.304 105.211 84.552 105.547 84.728C105.883 84.904 106.271 84.992 106.711 84.992C107.023 84.992 107.311 84.94 107.575 84.836C107.847 84.732 108.139 84.544 108.451 84.272L109.075 85.148C108.883 85.34 108.647 85.508 108.367 85.652C108.095 85.796 107.803 85.912 107.491 86C107.187 86.08 106.887 86.12 106.591 86.12ZM114.414 86V81.896C114.414 81.544 114.286 81.26 114.03 81.044C113.782 80.82 113.466 80.708 113.082 80.708C112.73 80.708 112.41 80.78 112.122 80.924C111.842 81.068 111.586 81.288 111.354 81.584L110.55 80.78C110.926 80.372 111.33 80.068 111.762 79.868C112.202 79.668 112.674 79.568 113.178 79.568C113.658 79.568 114.074 79.648 114.426 79.808C114.778 79.968 115.05 80.204 115.242 80.516C115.434 80.82 115.53 81.192 115.53 81.632V86H114.414ZM112.53 86.12C112.122 86.12 111.758 86.04 111.438 85.88C111.118 85.72 110.862 85.5 110.67 85.22C110.486 84.932 110.394 84.596 110.394 84.212C110.394 83.876 110.454 83.58 110.574 83.324C110.694 83.068 110.87 82.856 111.102 82.688C111.342 82.52 111.638 82.392 111.99 82.304C112.35 82.216 112.762 82.172 113.226 82.172H114.978L114.87 83.156H113.07C112.83 83.156 112.614 83.18 112.422 83.228C112.238 83.268 112.078 83.336 111.942 83.432C111.814 83.52 111.718 83.628 111.654 83.756C111.59 83.876 111.558 84.02 111.558 84.188C111.558 84.364 111.602 84.52 111.69 84.656C111.778 84.784 111.898 84.884 112.05 84.956C112.202 85.028 112.378 85.064 112.578 85.064C112.866 85.064 113.138 85.016 113.394 84.92C113.658 84.816 113.89 84.676 114.09 84.5C114.298 84.324 114.458 84.128 114.57 83.912L114.858 84.716C114.69 84.996 114.482 85.24 114.234 85.448C113.986 85.656 113.718 85.82 113.43 85.94C113.142 86.06 112.842 86.12 112.53 86.12ZM117.093 86V79.7H118.341V81.68L118.221 81.2C118.309 80.896 118.457 80.62 118.665 80.372C118.881 80.124 119.125 79.928 119.397 79.784C119.677 79.64 119.965 79.568 120.261 79.568C120.397 79.568 120.525 79.58 120.645 79.604C120.773 79.628 120.873 79.656 120.945 79.688L120.621 81.032C120.525 80.992 120.417 80.96 120.297 80.936C120.185 80.904 120.073 80.888 119.961 80.888C119.745 80.888 119.537 80.932 119.337 81.02C119.145 81.1 118.973 81.216 118.821 81.368C118.677 81.512 118.561 81.684 118.473 81.884C118.385 82.076 118.341 82.288 118.341 82.52V86H117.093ZM124.032 86.12C123.504 86.12 123.028 86.028 122.604 85.844C122.18 85.66 121.828 85.388 121.548 85.028L122.388 84.308C122.628 84.588 122.888 84.792 123.168 84.92C123.456 85.04 123.78 85.1 124.14 85.1C124.284 85.1 124.416 85.084 124.536 85.052C124.664 85.012 124.772 84.956 124.86 84.884C124.956 84.812 125.028 84.728 125.076 84.632C125.124 84.528 125.148 84.416 125.148 84.296C125.148 84.088 125.072 83.92 124.92 83.792C124.84 83.736 124.712 83.676 124.536 83.612C124.368 83.54 124.148 83.468 123.876 83.396C123.412 83.276 123.032 83.14 122.736 82.988C122.44 82.836 122.212 82.664 122.052 82.472C121.932 82.32 121.844 82.156 121.788 81.98C121.732 81.796 121.704 81.596 121.704 81.38C121.704 81.028 121.804 80.716 122.004 80.444C122.204 80.172 122.472 79.96 122.808 79.808C123.152 79.648 123.536 79.568 123.96 79.568C124.256 79.568 124.548 79.608 124.836 79.688C125.132 79.768 125.404 79.884 125.652 80.036C125.9 80.188 126.108 80.368 126.276 80.576L125.568 81.356C125.416 81.204 125.248 81.072 125.064 80.96C124.888 80.84 124.708 80.748 124.524 80.684C124.34 80.62 124.172 80.588 124.02 80.588C123.852 80.588 123.7 80.604 123.564 80.636C123.428 80.668 123.312 80.716 123.216 80.78C123.128 80.844 123.06 80.924 123.012 81.02C122.964 81.116 122.94 81.224 122.94 81.344C122.948 81.448 122.972 81.548 123.012 81.644C123.06 81.732 123.124 81.808 123.204 81.872C123.292 81.936 123.424 82.004 123.6 82.076C123.776 82.148 124 82.216 124.272 82.28C124.672 82.384 125 82.5 125.256 82.628C125.52 82.748 125.728 82.888 125.88 83.048C126.04 83.2 126.152 83.376 126.216 83.576C126.28 83.776 126.312 84 126.312 84.248C126.312 84.608 126.208 84.932 126 85.22C125.8 85.5 125.528 85.72 125.184 85.88C124.84 86.04 124.456 86.12 124.032 86.12Z" fill="black"/>
<defs>
<linearGradient id="paint0_linear_2_2" x1="44.5645" y1="34.8677" x2="142.279" y2="132.582" gradientUnits="userSpaceOnUse">
<stop stop-color="#A5A5FF"/>
<stop offset="1" stop-color="#5A5ABE"/>
</linearGradient>
</defs>
</svg>
