<svg width="198" height="198" viewBox="0 0 198 198" fill="none" xmlns="http://www.w3.org/2000/svg">
<rect width="198" height="198" fill="white"/>
<path fill-rule="evenodd" clip-rule="evenodd" d="M99.5853 134.171C133.369 134.171 160.756 106.784 160.756 73C160.756 39.2164 133.369 11.8294 99.5853 11.8294C65.8017 11.8294 38.4147 39.2164 38.4147 73C38.4147 106.784 65.8017 134.171 99.5853 134.171ZM99.5853 118.878C124.923 118.878 145.463 98.3377 145.463 73C145.463 47.6623 124.923 27.122 99.5853 27.122C74.2476 27.122 53.7073 47.6623 53.7073 73C53.7073 98.3377 74.2476 118.878 99.5853 118.878Z" fill="url(#paint0_linear_3_38)"/>
<path d="M142.987 29.1594C153.048 39.3021 159.309 52.648 160.704 66.9229C162.098 81.1979 158.54 95.5187 150.635 107.445C142.731 119.372 130.968 128.166 117.353 132.33C103.737 136.494 89.1103 135.77 75.965 130.281C62.8197 124.791 51.969 114.877 45.2618 102.227C38.5546 89.5763 36.4059 74.9728 39.1817 60.9044C41.9575 46.836 49.4862 34.1731 60.4848 25.0733C71.4835 15.9736 85.2717 11 99.5 11L99.5 73L142.987 29.1594Z" fill="white" fill-opacity="0.7"/>
<path d="M55.5569 162V153.6H56.8529V162H55.5569ZM56.1329 158.424V157.176H60.4649V158.424H56.1329ZM56.1329 154.848V153.6H61.0049V154.848H56.1329ZM62.3581 162V155.7H63.6061V157.68L63.4861 157.2C63.5741 156.896 63.7221 156.62 63.9301 156.372C64.1461 156.124 64.3901 155.928 64.6621 155.784C64.9421 155.64 65.2301 155.568 65.5261 155.568C65.6621 155.568 65.7901 155.58 65.9101 155.604C66.0381 155.628 66.1381 155.656 66.2101 155.688L65.8861 157.032C65.7901 156.992 65.6821 156.96 65.5621 156.936C65.4501 156.904 65.3381 156.888 65.2261 156.888C65.0101 156.888 64.8021 156.932 64.6021 157.02C64.4101 157.1 64.2381 157.216 64.0861 157.368C63.9421 157.512 63.8261 157.684 63.7381 157.884C63.6501 158.076 63.6061 158.288 63.6061 158.52V162H62.3581ZM69.8685 162.12C69.2205 162.12 68.6445 161.984 68.1405 161.712C67.6445 161.432 67.2525 161.052 66.9645 160.572C66.6845 160.092 66.5445 159.54 66.5445 158.916C66.5445 158.42 66.6245 157.968 66.7845 157.56C66.9445 157.152 67.1645 156.8 67.4445 156.504C67.7325 156.2 68.0725 155.968 68.4645 155.808C68.8645 155.64 69.2965 155.556 69.7605 155.556C70.1685 155.556 70.5485 155.636 70.9005 155.796C71.2525 155.948 71.5565 156.16 71.8125 156.432C72.0765 156.704 72.2765 157.028 72.4125 157.404C72.5565 157.772 72.6245 158.176 72.6165 158.616L72.6045 159.144H67.4565L67.1805 158.16H71.5365L71.3565 158.364V158.076C71.3325 157.812 71.2445 157.576 71.0925 157.368C70.9405 157.16 70.7485 156.996 70.5165 156.876C70.2845 156.756 70.0325 156.696 69.7605 156.696C69.3285 156.696 68.9645 156.78 68.6685 156.948C68.3725 157.108 68.1485 157.348 67.9965 157.668C67.8445 157.98 67.7685 158.368 67.7685 158.832C67.7685 159.272 67.8605 159.656 68.0445 159.984C68.2285 160.304 68.4885 160.552 68.8245 160.728C69.1605 160.904 69.5485 160.992 69.9885 160.992C70.3005 160.992 70.5885 160.94 70.8525 160.836C71.1245 160.732 71.4165 160.544 71.7285 160.272L72.3525 161.148C72.1605 161.34 71.9245 161.508 71.6445 161.652C71.3725 161.796 71.0805 161.912 70.7685 162C70.4645 162.08 70.1645 162.12 69.8685 162.12ZM73.9597 162V155.7H75.1957V156.996L74.9797 157.14C75.0597 156.86 75.2157 156.604 75.4477 156.372C75.6797 156.132 75.9557 155.94 76.2757 155.796C76.5957 155.644 76.9237 155.568 77.2597 155.568C77.7397 155.568 78.1397 155.664 78.4597 155.856C78.7797 156.04 79.0197 156.324 79.1797 156.708C79.3397 157.092 79.4197 157.576 79.4197 158.16V162H78.1837V158.244C78.1837 157.884 78.1357 157.588 78.0397 157.356C77.9437 157.116 77.7957 156.944 77.5957 156.84C77.3957 156.728 77.1477 156.68 76.8517 156.696C76.6117 156.696 76.3917 156.736 76.1917 156.816C75.9917 156.888 75.8157 156.992 75.6637 157.128C75.5197 157.264 75.4037 157.424 75.3157 157.608C75.2357 157.784 75.1957 157.976 75.1957 158.184V162H74.5837C74.4797 162 74.3757 162 74.2717 162C74.1677 162 74.0637 162 73.9597 162ZM83.7724 162.12C83.1884 162.12 82.6644 161.976 82.2004 161.688C81.7444 161.4 81.3804 161.008 81.1084 160.512C80.8444 160.016 80.7124 159.46 80.7124 158.844C80.7124 158.228 80.8444 157.672 81.1084 157.176C81.3804 156.68 81.7444 156.288 82.2004 156C82.6644 155.712 83.1884 155.568 83.7724 155.568C84.3324 155.568 84.8404 155.684 85.2964 155.916C85.7604 156.14 86.1124 156.448 86.3524 156.84L85.6684 157.68C85.5404 157.496 85.3764 157.328 85.1764 157.176C84.9764 157.024 84.7644 156.904 84.5404 156.816C84.3164 156.728 84.1004 156.684 83.8924 156.684C83.5084 156.684 83.1644 156.78 82.8604 156.972C82.5644 157.156 82.3284 157.412 82.1524 157.74C81.9764 158.068 81.8884 158.436 81.8884 158.844C81.8884 159.252 81.9804 159.62 82.1644 159.948C82.3484 160.268 82.5924 160.524 82.8964 160.716C83.2004 160.908 83.5364 161.004 83.9044 161.004C84.1204 161.004 84.3284 160.968 84.5284 160.896C84.7364 160.824 84.9364 160.716 85.1284 160.572C85.3204 160.428 85.5004 160.252 85.6684 160.044L86.3524 160.884C86.0964 161.244 85.7284 161.54 85.2484 161.772C84.7764 162.004 84.2844 162.12 83.7724 162.12ZM87.5183 162V153.12H88.7543V156.996L88.5383 157.14C88.6183 156.86 88.7743 156.604 89.0063 156.372C89.2383 156.132 89.5143 155.94 89.8343 155.796C90.1543 155.644 90.4823 155.568 90.8183 155.568C91.2983 155.568 91.6983 155.664 92.0183 155.856C92.3383 156.04 92.5783 156.324 92.7383 156.708C92.8983 157.092 92.9783 157.576 92.9783 158.16V162H91.7423V158.244C91.7423 157.884 91.6943 157.588 91.5983 157.356C91.5023 157.116 91.3543 156.944 91.1543 156.84C90.9543 156.728 90.7063 156.68 90.4103 156.696C90.1703 156.696 89.9503 156.736 89.7503 156.816C89.5503 156.888 89.3743 156.992 89.2223 157.128C89.0783 157.264 88.9623 157.424 88.8743 157.608C88.7943 157.784 88.7543 157.976 88.7543 158.184V162H88.1423C88.0383 162 87.9343 162 87.8303 162C87.7263 162 87.6223 162 87.5183 162ZM94.847 164.148L94.391 163.596C94.671 163.436 94.899 163.252 95.075 163.044C95.251 162.836 95.339 162.656 95.339 162.504C95.339 162.424 95.319 162.344 95.279 162.264C95.239 162.192 95.155 162.088 95.027 161.952C94.867 161.8 94.763 161.672 94.715 161.568C94.667 161.464 94.643 161.352 94.643 161.232C94.643 161.04 94.711 160.888 94.847 160.776C94.983 160.656 95.159 160.596 95.375 160.596C95.575 160.596 95.755 160.656 95.915 160.776C96.083 160.888 96.211 161.048 96.299 161.256C96.395 161.456 96.443 161.688 96.443 161.952C96.443 162.192 96.403 162.424 96.323 162.648C96.243 162.872 96.131 163.08 95.987 163.272C95.843 163.464 95.675 163.636 95.483 163.788C95.291 163.94 95.079 164.06 94.847 164.148ZM100.654 162L103.906 153.6H105.226L108.454 162H107.074L105.154 156.936C105.13 156.88 105.082 156.744 105.01 156.528C104.946 156.312 104.87 156.072 104.782 155.808C104.694 155.544 104.614 155.304 104.542 155.088C104.47 154.864 104.422 154.72 104.398 154.656L104.674 154.644C104.626 154.78 104.566 154.952 104.494 155.16C104.43 155.368 104.358 155.588 104.278 155.82C104.206 156.052 104.134 156.272 104.062 156.48C103.99 156.68 103.93 156.848 103.882 156.984L101.974 162H100.654ZM102.094 159.912L102.574 158.664H106.39L106.942 159.912H102.094ZM109.62 162V155.7H110.868V157.68L110.748 157.2C110.836 156.896 110.984 156.62 111.192 156.372C111.408 156.124 111.652 155.928 111.924 155.784C112.204 155.64 112.492 155.568 112.788 155.568C112.924 155.568 113.052 155.58 113.172 155.604C113.3 155.628 113.4 155.656 113.472 155.688L113.148 157.032C113.052 156.992 112.944 156.96 112.824 156.936C112.712 156.904 112.6 156.888 112.488 156.888C112.272 156.888 112.064 156.932 111.864 157.02C111.672 157.1 111.5 157.216 111.348 157.368C111.204 157.512 111.088 157.684 111 157.884C110.912 158.076 110.868 158.288 110.868 158.52V162H109.62ZM117.922 162V157.896C117.922 157.544 117.794 157.26 117.538 157.044C117.29 156.82 116.974 156.708 116.59 156.708C116.238 156.708 115.918 156.78 115.63 156.924C115.35 157.068 115.094 157.288 114.862 157.584L114.058 156.78C114.434 156.372 114.838 156.068 115.27 155.868C115.71 155.668 116.182 155.568 116.686 155.568C117.166 155.568 117.582 155.648 117.934 155.808C118.286 155.968 118.558 156.204 118.75 156.516C118.942 156.82 119.038 157.192 119.038 157.632V162H117.922ZM116.038 162.12C115.63 162.12 115.266 162.04 114.946 161.88C114.626 161.72 114.37 161.5 114.178 161.22C113.994 160.932 113.902 160.596 113.902 160.212C113.902 159.876 113.962 159.58 114.082 159.324C114.202 159.068 114.378 158.856 114.61 158.688C114.85 158.52 115.146 158.392 115.498 158.304C115.858 158.216 116.27 158.172 116.734 158.172H118.486L118.378 159.156H116.578C116.338 159.156 116.122 159.18 115.93 159.228C115.746 159.268 115.586 159.336 115.45 159.432C115.322 159.52 115.226 159.628 115.162 159.756C115.098 159.876 115.066 160.02 115.066 160.188C115.066 160.364 115.11 160.52 115.198 160.656C115.286 160.784 115.406 160.884 115.558 160.956C115.71 161.028 115.886 161.064 116.086 161.064C116.374 161.064 116.646 161.016 116.902 160.92C117.166 160.816 117.398 160.676 117.598 160.5C117.806 160.324 117.966 160.128 118.078 159.912L118.366 160.716C118.198 160.996 117.99 161.24 117.742 161.448C117.494 161.656 117.226 161.82 116.938 161.94C116.65 162.06 116.35 162.12 116.038 162.12ZM123.912 162.12C123.64 162.12 123.368 162.076 123.096 161.988C122.832 161.9 122.588 161.784 122.364 161.64C122.148 161.488 121.964 161.324 121.812 161.148C121.668 160.964 121.572 160.78 121.524 160.596L121.836 160.428V161.964H120.6V153.12H121.836V157.14L121.644 157.032C121.684 156.848 121.772 156.672 121.908 156.504C122.044 156.328 122.216 156.172 122.424 156.036C122.64 155.892 122.872 155.78 123.12 155.7C123.368 155.612 123.62 155.568 123.876 155.568C124.444 155.568 124.948 155.708 125.388 155.988C125.828 156.268 126.176 156.656 126.432 157.152C126.688 157.64 126.816 158.2 126.816 158.832C126.816 159.464 126.688 160.028 126.432 160.524C126.184 161.02 125.84 161.412 125.4 161.7C124.96 161.98 124.464 162.12 123.912 162.12ZM123.708 160.992C124.076 160.992 124.404 160.9 124.692 160.716C124.98 160.524 125.208 160.268 125.376 159.948C125.544 159.62 125.628 159.248 125.628 158.832C125.628 158.424 125.544 158.06 125.376 157.74C125.216 157.412 124.992 157.156 124.704 156.972C124.416 156.788 124.084 156.696 123.708 156.696C123.332 156.696 123 156.788 122.712 156.972C122.424 157.156 122.196 157.412 122.028 157.74C121.86 158.06 121.776 158.424 121.776 158.832C121.776 159.248 121.86 159.62 122.028 159.948C122.196 160.268 122.424 160.524 122.712 160.716C123 160.9 123.332 160.992 123.708 160.992ZM128.363 162V155.7H129.599V162H128.363ZM128.963 154.308C128.699 154.308 128.495 154.24 128.351 154.104C128.207 153.968 128.135 153.776 128.135 153.528C128.135 153.296 128.207 153.108 128.351 152.964C128.503 152.82 128.707 152.748 128.963 152.748C129.227 152.748 129.431 152.816 129.575 152.952C129.719 153.088 129.791 153.28 129.791 153.528C129.791 153.76 129.715 153.948 129.563 154.092C129.419 154.236 129.219 154.308 128.963 154.308ZM134.175 162.12C133.591 162.12 133.067 161.976 132.603 161.688C132.147 161.4 131.783 161.008 131.511 160.512C131.247 160.016 131.115 159.46 131.115 158.844C131.115 158.228 131.247 157.672 131.511 157.176C131.783 156.68 132.147 156.288 132.603 156C133.067 155.712 133.591 155.568 134.175 155.568C134.735 155.568 135.243 155.684 135.699 155.916C136.163 156.14 136.515 156.448 136.755 156.84L136.071 157.68C135.943 157.496 135.779 157.328 135.579 157.176C135.379 157.024 135.167 156.904 134.943 156.816C134.719 156.728 134.503 156.684 134.295 156.684C133.911 156.684 133.567 156.78 133.263 156.972C132.967 157.156 132.731 157.412 132.555 157.74C132.379 158.068 132.291 158.436 132.291 158.844C132.291 159.252 132.383 159.62 132.567 159.948C132.751 160.268 132.995 160.524 133.299 160.716C133.603 160.908 133.939 161.004 134.307 161.004C134.523 161.004 134.731 160.968 134.931 160.896C135.139 160.824 135.339 160.716 135.531 160.572C135.723 160.428 135.903 160.252 136.071 160.044L136.755 160.884C136.499 161.244 136.131 161.54 135.651 161.772C135.179 162.004 134.687 162.12 134.175 162.12ZM138.113 164.148L137.657 163.596C137.937 163.436 138.165 163.252 138.341 163.044C138.517 162.836 138.605 162.656 138.605 162.504C138.605 162.424 138.585 162.344 138.545 162.264C138.505 162.192 138.421 162.088 138.293 161.952C138.133 161.8 138.029 161.672 137.981 161.568C137.933 161.464 137.909 161.352 137.909 161.232C137.909 161.04 137.977 160.888 138.113 160.776C138.249 160.656 138.425 160.596 138.641 160.596C138.841 160.596 139.021 160.656 139.181 160.776C139.349 160.888 139.477 161.048 139.565 161.256C139.661 161.456 139.709 161.688 139.709 161.952C139.709 162.192 139.669 162.424 139.589 162.648C139.509 162.872 139.397 163.08 139.253 163.272C139.109 163.464 138.941 163.636 138.749 163.788C138.557 163.94 138.345 164.06 138.113 164.148ZM78.2444 174V165.6H81.8204C82.3004 165.6 82.7404 165.72 83.1404 165.96C83.5484 166.192 83.8724 166.512 84.1124 166.92C84.3524 167.32 84.4724 167.772 84.4724 168.276C84.4724 168.732 84.3524 169.156 84.1124 169.548C83.8724 169.94 83.5524 170.256 83.1524 170.496C82.7524 170.728 82.3084 170.844 81.8204 170.844H79.5404V174H78.2444ZM83.2364 174L81.1004 170.208L82.4324 169.908L84.8084 174.012L83.2364 174ZM79.5404 169.596H81.9404C82.1724 169.596 82.3804 169.54 82.5644 169.428C82.7484 169.308 82.8924 169.148 82.9964 168.948C83.1004 168.74 83.1524 168.512 83.1524 168.264C83.1524 167.984 83.0844 167.74 82.9484 167.532C82.8204 167.316 82.6364 167.148 82.3964 167.028C82.1644 166.908 81.9004 166.848 81.6044 166.848H79.5404V169.596ZM88.3669 174.12C87.9189 174.12 87.5269 174.016 87.1909 173.808C86.8629 173.6 86.6069 173.308 86.4229 172.932C86.2469 172.556 86.1589 172.108 86.1589 171.588V167.7H87.3949V171.252C87.3949 171.804 87.5229 172.24 87.7789 172.56C88.0429 172.88 88.4069 173.04 88.8709 173.04C89.1029 173.04 89.3149 173.004 89.5069 172.932C89.6989 172.852 89.8629 172.744 89.9989 172.608C90.1429 172.472 90.2549 172.308 90.3349 172.116C90.4149 171.924 90.4549 171.716 90.4549 171.492V167.7H91.6909V174H90.4549V172.68L90.6709 172.536C90.5749 172.832 90.4109 173.1 90.1789 173.34C89.9549 173.58 89.6869 173.772 89.3749 173.916C89.0629 174.052 88.7269 174.12 88.3669 174.12ZM95.5245 174.12C94.9965 174.12 94.5205 174.028 94.0965 173.844C93.6725 173.66 93.3205 173.388 93.0405 173.028L93.8805 172.308C94.1205 172.588 94.3805 172.792 94.6605 172.92C94.9485 173.04 95.2725 173.1 95.6325 173.1C95.7765 173.1 95.9085 173.084 96.0285 173.052C96.1565 173.012 96.2645 172.956 96.3525 172.884C96.4485 172.812 96.5205 172.728 96.5685 172.632C96.6165 172.528 96.6405 172.416 96.6405 172.296C96.6405 172.088 96.5645 171.92 96.4125 171.792C96.3325 171.736 96.2045 171.676 96.0285 171.612C95.8605 171.54 95.6405 171.468 95.3685 171.396C94.9045 171.276 94.5245 171.14 94.2285 170.988C93.9325 170.836 93.7045 170.664 93.5445 170.472C93.4245 170.32 93.3365 170.156 93.2805 169.98C93.2245 169.796 93.1965 169.596 93.1965 169.38C93.1965 169.028 93.2965 168.716 93.4965 168.444C93.6965 168.172 93.9645 167.96 94.3005 167.808C94.6445 167.648 95.0285 167.568 95.4525 167.568C95.7485 167.568 96.0405 167.608 96.3285 167.688C96.6245 167.768 96.8965 167.884 97.1445 168.036C97.3925 168.188 97.6005 168.368 97.7685 168.576L97.0605 169.356C96.9085 169.204 96.7405 169.072 96.5565 168.96C96.3805 168.84 96.2005 168.748 96.0165 168.684C95.8325 168.62 95.6645 168.588 95.5125 168.588C95.3445 168.588 95.1925 168.604 95.0565 168.636C94.9205 168.668 94.8045 168.716 94.7085 168.78C94.6205 168.844 94.5525 168.924 94.5045 169.02C94.4565 169.116 94.4325 169.224 94.4325 169.344C94.4405 169.448 94.4645 169.548 94.5045 169.644C94.5525 169.732 94.6165 169.808 94.6965 169.872C94.7845 169.936 94.9165 170.004 95.0925 170.076C95.2685 170.148 95.4925 170.216 95.7645 170.28C96.1645 170.384 96.4925 170.5 96.7485 170.628C97.0125 170.748 97.2205 170.888 97.3725 171.048C97.5325 171.2 97.6445 171.376 97.7085 171.576C97.7725 171.776 97.8045 172 97.8045 172.248C97.8045 172.608 97.7005 172.932 97.4925 173.22C97.2925 173.5 97.0205 173.72 96.6765 173.88C96.3325 174.04 95.9485 174.12 95.5245 174.12ZM101.267 174.12C100.739 174.12 100.263 174.028 99.8387 173.844C99.4147 173.66 99.0627 173.388 98.7827 173.028L99.6227 172.308C99.8627 172.588 100.123 172.792 100.403 172.92C100.691 173.04 101.015 173.1 101.375 173.1C101.519 173.1 101.651 173.084 101.771 173.052C101.899 173.012 102.007 172.956 102.095 172.884C102.191 172.812 102.263 172.728 102.311 172.632C102.359 172.528 102.383 172.416 102.383 172.296C102.383 172.088 102.307 171.92 102.155 171.792C102.075 171.736 101.947 171.676 101.771 171.612C101.603 171.54 101.383 171.468 101.111 171.396C100.647 171.276 100.267 171.14 99.9707 170.988C99.6747 170.836 99.4467 170.664 99.2867 170.472C99.1667 170.32 99.0787 170.156 99.0227 169.98C98.9667 169.796 98.9387 169.596 98.9387 169.38C98.9387 169.028 99.0387 168.716 99.2387 168.444C99.4387 168.172 99.7067 167.96 100.043 167.808C100.387 167.648 100.771 167.568 101.195 167.568C101.491 167.568 101.783 167.608 102.071 167.688C102.367 167.768 102.639 167.884 102.887 168.036C103.135 168.188 103.343 168.368 103.511 168.576L102.803 169.356C102.651 169.204 102.483 169.072 102.299 168.96C102.123 168.84 101.943 168.748 101.759 168.684C101.575 168.62 101.407 168.588 101.255 168.588C101.087 168.588 100.935 168.604 100.799 168.636C100.663 168.668 100.547 168.716 100.451 168.78C100.363 168.844 100.295 168.924 100.247 169.02C100.199 169.116 100.175 169.224 100.175 169.344C100.183 169.448 100.207 169.548 100.247 169.644C100.295 169.732 100.359 169.808 100.439 169.872C100.527 169.936 100.659 170.004 100.835 170.076C101.011 170.148 101.235 170.216 101.507 170.28C101.907 170.384 102.235 170.5 102.491 170.628C102.755 170.748 102.963 170.888 103.115 171.048C103.275 171.2 103.387 171.376 103.451 171.576C103.515 171.776 103.547 172 103.547 172.248C103.547 172.608 103.443 172.932 103.235 173.22C103.035 173.5 102.763 173.72 102.419 173.88C102.075 174.04 101.691 174.12 101.267 174.12ZM105.113 174V167.7H106.349V174H105.113ZM105.713 166.308C105.449 166.308 105.245 166.24 105.101 166.104C104.957 165.968 104.885 165.776 104.885 165.528C104.885 165.296 104.957 165.108 105.101 164.964C105.253 164.82 105.457 164.748 105.713 164.748C105.977 164.748 106.181 164.816 106.325 164.952C106.469 165.088 106.541 165.28 106.541 165.528C106.541 165.76 106.465 165.948 106.313 166.092C106.169 166.236 105.969 166.308 105.713 166.308ZM111.981 174V169.896C111.981 169.544 111.853 169.26 111.597 169.044C111.349 168.82 111.033 168.708 110.649 168.708C110.297 168.708 109.977 168.78 109.689 168.924C109.409 169.068 109.153 169.288 108.921 169.584L108.117 168.78C108.493 168.372 108.897 168.068 109.329 167.868C109.769 167.668 110.241 167.568 110.745 167.568C111.225 167.568 111.641 167.648 111.993 167.808C112.345 167.968 112.617 168.204 112.809 168.516C113.001 168.82 113.097 169.192 113.097 169.632V174H111.981ZM110.097 174.12C109.689 174.12 109.325 174.04 109.005 173.88C108.685 173.72 108.429 173.5 108.237 173.22C108.053 172.932 107.961 172.596 107.961 172.212C107.961 171.876 108.021 171.58 108.141 171.324C108.261 171.068 108.437 170.856 108.669 170.688C108.909 170.52 109.205 170.392 109.557 170.304C109.917 170.216 110.329 170.172 110.793 170.172H112.545L112.437 171.156H110.637C110.397 171.156 110.181 171.18 109.989 171.228C109.805 171.268 109.645 171.336 109.509 171.432C109.381 171.52 109.285 171.628 109.221 171.756C109.157 171.876 109.125 172.02 109.125 172.188C109.125 172.364 109.169 172.52 109.257 172.656C109.345 172.784 109.465 172.884 109.617 172.956C109.769 173.028 109.945 173.064 110.145 173.064C110.433 173.064 110.705 173.016 110.961 172.92C111.225 172.816 111.457 172.676 111.657 172.5C111.865 172.324 112.025 172.128 112.137 171.912L112.425 172.716C112.257 172.996 112.049 173.24 111.801 173.448C111.553 173.656 111.285 173.82 110.997 173.94C110.709 174.06 110.409 174.12 110.097 174.12ZM114.659 174V167.7H115.895V168.996L115.679 169.14C115.759 168.86 115.915 168.604 116.147 168.372C116.379 168.132 116.655 167.94 116.975 167.796C117.295 167.644 117.623 167.568 117.959 167.568C118.439 167.568 118.839 167.664 119.159 167.856C119.479 168.04 119.719 168.324 119.879 168.708C120.039 169.092 120.119 169.576 120.119 170.16V174H118.883V170.244C118.883 169.884 118.835 169.588 118.739 169.356C118.643 169.116 118.495 168.944 118.295 168.84C118.095 168.728 117.847 168.68 117.551 168.696C117.311 168.696 117.091 168.736 116.891 168.816C116.691 168.888 116.515 168.992 116.363 169.128C116.219 169.264 116.103 169.424 116.015 169.608C115.935 169.784 115.895 169.976 115.895 170.184V174H115.283C115.179 174 115.075 174 114.971 174C114.867 174 114.763 174 114.659 174Z" fill="black"/>
<path d="M80.4787 74V65.6H81.6427L86.7787 72.476L86.5867 72.584C86.5307 72.256 86.4827 71.876 86.4427 71.444C86.4107 71.012 86.3867 70.536 86.3707 70.016C86.3547 69.496 86.3467 68.944 86.3467 68.36V65.6H87.6427V74H86.4547L81.4027 67.376L81.5347 67.208C81.5907 67.816 81.6347 68.316 81.6667 68.708C81.6987 69.092 81.7227 69.4 81.7387 69.632C81.7547 69.864 81.7627 70.048 81.7627 70.184C81.7707 70.312 81.7747 70.42 81.7747 70.508V74H80.4787ZM92.5144 74.12C91.8984 74.12 91.3464 73.98 90.8584 73.7C90.3784 73.412 89.9984 73.024 89.7184 72.536C89.4384 72.04 89.2984 71.476 89.2984 70.844C89.2984 70.212 89.4384 69.652 89.7184 69.164C89.9984 68.668 90.3784 68.28 90.8584 68C91.3464 67.712 91.8984 67.568 92.5144 67.568C93.1224 67.568 93.6664 67.712 94.1464 68C94.6344 68.28 95.0184 68.668 95.2984 69.164C95.5784 69.652 95.7184 70.212 95.7184 70.844C95.7184 71.476 95.5784 72.04 95.2984 72.536C95.0184 73.024 94.6344 73.412 94.1464 73.7C93.6664 73.98 93.1224 74.12 92.5144 74.12ZM92.5144 72.992C92.8904 72.992 93.2264 72.9 93.5224 72.716C93.8184 72.524 94.0504 72.268 94.2184 71.948C94.3864 71.62 94.4664 71.252 94.4584 70.844C94.4664 70.428 94.3864 70.06 94.2184 69.74C94.0504 69.412 93.8184 69.156 93.5224 68.972C93.2264 68.788 92.8904 68.696 92.5144 68.696C92.1384 68.696 91.7984 68.792 91.4944 68.984C91.1984 69.168 90.9664 69.424 90.7984 69.752C90.6304 70.072 90.5504 70.436 90.5584 70.844C90.5504 71.252 90.6304 71.62 90.7984 71.948C90.9664 72.268 91.1984 72.524 91.4944 72.716C91.7984 72.9 92.1384 72.992 92.5144 72.992ZM98.9534 74L96.2894 67.7H97.6214L99.5414 72.416L99.3134 72.524L101.365 67.7H102.637L99.8414 74H98.9534ZM103.972 74V67.7H105.208V74H103.972ZM104.572 66.308C104.308 66.308 104.104 66.24 103.96 66.104C103.816 65.968 103.744 65.776 103.744 65.528C103.744 65.296 103.816 65.108 103.96 64.964C104.112 64.82 104.316 64.748 104.572 64.748C104.836 64.748 105.04 64.816 105.184 64.952C105.328 65.088 105.4 65.28 105.4 65.528C105.4 65.76 105.324 65.948 105.172 66.092C105.028 66.236 104.828 66.308 104.572 66.308ZM109.784 74.12C109.2 74.12 108.676 73.976 108.212 73.688C107.756 73.4 107.392 73.008 107.12 72.512C106.856 72.016 106.724 71.46 106.724 70.844C106.724 70.228 106.856 69.672 107.12 69.176C107.392 68.68 107.756 68.288 108.212 68C108.676 67.712 109.2 67.568 109.784 67.568C110.344 67.568 110.852 67.684 111.308 67.916C111.772 68.14 112.124 68.448 112.364 68.84L111.68 69.68C111.552 69.496 111.388 69.328 111.188 69.176C110.988 69.024 110.776 68.904 110.552 68.816C110.328 68.728 110.112 68.684 109.904 68.684C109.52 68.684 109.176 68.78 108.872 68.972C108.576 69.156 108.34 69.412 108.164 69.74C107.988 70.068 107.9 70.436 107.9 70.844C107.9 71.252 107.992 71.62 108.176 71.948C108.36 72.268 108.604 72.524 108.908 72.716C109.212 72.908 109.548 73.004 109.916 73.004C110.132 73.004 110.34 72.968 110.54 72.896C110.748 72.824 110.948 72.716 111.14 72.572C111.332 72.428 111.512 72.252 111.68 72.044L112.364 72.884C112.108 73.244 111.74 73.54 111.26 73.772C110.788 74.004 110.296 74.12 109.784 74.12ZM116.47 74.12C115.822 74.12 115.246 73.984 114.742 73.712C114.246 73.432 113.854 73.052 113.566 72.572C113.286 72.092 113.146 71.54 113.146 70.916C113.146 70.42 113.226 69.968 113.386 69.56C113.546 69.152 113.766 68.8 114.046 68.504C114.334 68.2 114.674 67.968 115.066 67.808C115.466 67.64 115.898 67.556 116.362 67.556C116.77 67.556 117.15 67.636 117.502 67.796C117.854 67.948 118.158 68.16 118.414 68.432C118.678 68.704 118.878 69.028 119.014 69.404C119.158 69.772 119.226 70.176 119.218 70.616L119.206 71.144H114.058L113.782 70.16H118.138L117.958 70.364V70.076C117.934 69.812 117.846 69.576 117.694 69.368C117.542 69.16 117.35 68.996 117.118 68.876C116.886 68.756 116.634 68.696 116.362 68.696C115.93 68.696 115.566 68.78 115.27 68.948C114.974 69.108 114.75 69.348 114.598 69.668C114.446 69.98 114.37 70.368 114.37 70.832C114.37 71.272 114.462 71.656 114.646 71.984C114.83 72.304 115.09 72.552 115.426 72.728C115.762 72.904 116.15 72.992 116.59 72.992C116.902 72.992 117.19 72.94 117.454 72.836C117.726 72.732 118.018 72.544 118.33 72.272L118.954 73.148C118.762 73.34 118.526 73.508 118.246 73.652C117.974 73.796 117.682 73.912 117.37 74C117.066 74.08 116.766 74.12 116.47 74.12ZM84.1527 85.952L79.8207 83.468V82.496L84.1527 80.012L84.7287 80.912L80.4207 83.384V82.58L84.7287 85.052L84.1527 85.952ZM87.8833 85.412V78.596L88.3273 78.932L86.6713 79.808L86.3233 78.68L88.5673 77.48H89.1913V85.412H87.8833ZM86.5513 86V84.752H90.5593V86H86.5513ZM96.5626 88.76L97.8346 85.82L97.8466 86.804L94.7026 79.7H96.1426L98.1106 84.332C98.1506 84.412 98.1986 84.536 98.2546 84.704C98.3106 84.864 98.3586 85.024 98.3986 85.184L98.0866 85.256C98.1506 85.088 98.2106 84.92 98.2666 84.752C98.3306 84.584 98.3906 84.416 98.4466 84.248L100.091 79.7H101.555L98.9626 86L97.8946 88.76H96.5626ZM105.302 86.12C104.654 86.12 104.078 85.984 103.574 85.712C103.078 85.432 102.686 85.052 102.398 84.572C102.118 84.092 101.978 83.54 101.978 82.916C101.978 82.42 102.058 81.968 102.218 81.56C102.378 81.152 102.598 80.8 102.878 80.504C103.166 80.2 103.506 79.968 103.898 79.808C104.298 79.64 104.73 79.556 105.194 79.556C105.602 79.556 105.982 79.636 106.334 79.796C106.686 79.948 106.99 80.16 107.246 80.432C107.51 80.704 107.71 81.028 107.846 81.404C107.99 81.772 108.058 82.176 108.05 82.616L108.038 83.144H102.89L102.614 82.16H106.97L106.79 82.364V82.076C106.766 81.812 106.678 81.576 106.526 81.368C106.374 81.16 106.182 80.996 105.95 80.876C105.718 80.756 105.466 80.696 105.194 80.696C104.762 80.696 104.398 80.78 104.102 80.948C103.806 81.108 103.582 81.348 103.43 81.668C103.278 81.98 103.202 82.368 103.202 82.832C103.202 83.272 103.294 83.656 103.478 83.984C103.662 84.304 103.922 84.552 104.258 84.728C104.594 84.904 104.982 84.992 105.422 84.992C105.734 84.992 106.022 84.94 106.286 84.836C106.558 84.732 106.85 84.544 107.162 84.272L107.786 85.148C107.594 85.34 107.358 85.508 107.078 85.652C106.806 85.796 106.514 85.912 106.202 86C105.898 86.08 105.598 86.12 105.302 86.12ZM113.125 86V81.896C113.125 81.544 112.997 81.26 112.741 81.044C112.493 80.82 112.177 80.708 111.793 80.708C111.441 80.708 111.121 80.78 110.833 80.924C110.553 81.068 110.297 81.288 110.065 81.584L109.261 80.78C109.637 80.372 110.041 80.068 110.473 79.868C110.913 79.668 111.385 79.568 111.889 79.568C112.369 79.568 112.785 79.648 113.137 79.808C113.489 79.968 113.761 80.204 113.953 80.516C114.145 80.82 114.241 81.192 114.241 81.632V86H113.125ZM111.241 86.12C110.833 86.12 110.469 86.04 110.149 85.88C109.829 85.72 109.573 85.5 109.381 85.22C109.197 84.932 109.105 84.596 109.105 84.212C109.105 83.876 109.165 83.58 109.285 83.324C109.405 83.068 109.581 82.856 109.813 82.688C110.053 82.52 110.349 82.392 110.701 82.304C111.061 82.216 111.473 82.172 111.937 82.172H113.689L113.581 83.156H111.781C111.541 83.156 111.325 83.18 111.133 83.228C110.949 83.268 110.789 83.336 110.653 83.432C110.525 83.52 110.429 83.628 110.365 83.756C110.301 83.876 110.269 84.02 110.269 84.188C110.269 84.364 110.313 84.52 110.401 84.656C110.489 84.784 110.609 84.884 110.761 84.956C110.913 85.028 111.089 85.064 111.289 85.064C111.577 85.064 111.849 85.016 112.105 84.92C112.369 84.816 112.601 84.676 112.801 84.5C113.009 84.324 113.169 84.128 113.281 83.912L113.569 84.716C113.401 84.996 113.193 85.24 112.945 85.448C112.697 85.656 112.429 85.82 112.141 85.94C111.853 86.06 111.553 86.12 111.241 86.12ZM115.803 86V79.7H117.051V81.68L116.931 81.2C117.019 80.896 117.167 80.62 117.375 80.372C117.591 80.124 117.835 79.928 118.107 79.784C118.387 79.64 118.675 79.568 118.971 79.568C119.107 79.568 119.235 79.58 119.355 79.604C119.483 79.628 119.583 79.656 119.655 79.688L119.331 81.032C119.235 80.992 119.127 80.96 119.007 80.936C118.895 80.904 118.783 80.888 118.671 80.888C118.455 80.888 118.247 80.932 118.047 81.02C117.855 81.1 117.683 81.216 117.531 81.368C117.387 81.512 117.271 81.684 117.183 81.884C117.095 82.076 117.051 82.288 117.051 82.52V86H115.803Z" fill="black"/>
<defs>
<linearGradient id="paint0_linear_3_38" x1="45.5645" y1="34.8677" x2="143.279" y2="132.582" gradientUnits="userSpaceOnUse">
<stop stop-color="#A5A5FF"/>
<stop offset="1" stop-color="#5A5ABE"/>
</linearGradient>
</defs>
</svg>
