<svg width="19" height="19" viewBox="0 0 19 19" fill="none" xmlns="http://www.w3.org/2000/svg">
<path d="M9.97679 14.6977C12.9309 14.6977 15.3257 12.303 15.3257 9.34886C15.3257 6.39477 12.9309 4 9.97679 4C7.0227 4 4.62793 6.39477 4.62793 9.34886C4.62793 12.303 7.0227 14.6977 9.97679 14.6977Z" fill="#DF3A1F"/>
<mask id="mask0_2906_80580" style="mask-type:alpha" maskUnits="userSpaceOnUse" x="4" y="4" width="12" height="11">
<path d="M9.97679 14.6977C12.9309 14.6977 15.3257 12.303 15.3257 9.34886C15.3257 6.39477 12.9309 4 9.97679 4C7.0227 4 4.62793 6.39477 4.62793 9.34886C4.62793 12.303 7.0227 14.6977 9.97679 14.6977Z" fill="#DF3A1F"/>
</mask>
<g mask="url(#mask0_2906_80580)">
<rect x="3.26758" y="9.49316" width="2.01774" height="7.2062" rx="1.00887" transform="rotate(-90 3.26758 9.49316)" fill="#FF8874"/>
<rect x="4.42041" y="7.47559" width="1.72949" height="3.45898" rx="0.864744" transform="rotate(-90 4.42041 7.47559)" fill="#FF8874"/>
<rect x="9.60889" y="14.186" width="1.8103" height="6.30778" rx="0.905153" transform="rotate(-90 9.60889 14.186)" fill="#FF8874"/>
</g>
<path fill-rule="evenodd" clip-rule="evenodd" d="M15.3174 9.04609C15.3342 9.03841 15.3509 9.03073 15.3675 9.02307C16.0078 8.72754 16.5416 8.43222 16.9115 8.15176C17.0946 8.01301 17.2626 7.85933 17.3802 7.69067C17.4946 7.52676 17.611 7.27373 17.5332 6.98311C17.4553 6.69248 17.2279 6.53159 17.0469 6.44681C16.8607 6.35958 16.6384 6.31048 16.4105 6.28183C15.9499 6.22392 15.3399 6.23508 14.6377 6.29928C14.5563 6.30672 14.4733 6.31491 14.3888 6.32383C14.5936 6.62201 14.769 6.94199 14.9108 7.27958C15.4984 7.23313 15.9628 7.23342 16.2858 7.27402C16.3238 7.2788 16.3585 7.28398 16.39 7.28941C16.3654 7.30989 16.3379 7.33172 16.3074 7.35487C16.0554 7.54596 15.6685 7.7709 15.1585 8.01619C15.2436 8.34813 15.2977 8.69253 15.3174 9.04609ZM4.83464 10.826C4.93126 11.163 5.06011 11.4864 5.21764 11.7926C5.11654 11.8035 5.01755 11.8134 4.92077 11.8223C4.21854 11.8865 3.60855 11.8976 3.14794 11.8397C2.92008 11.8111 2.69774 11.762 2.51152 11.6747C2.33054 11.5899 2.10316 11.4291 2.02529 11.1384C1.94741 10.8478 2.06389 10.5948 2.17823 10.4309C2.29589 10.2622 2.46389 10.1085 2.6469 9.96978C3.01684 9.68932 3.55069 9.39399 4.19093 9.09847C4.33648 9.03129 4.48867 8.96358 4.64708 8.89553C4.63453 9.04503 4.62813 9.19627 4.62813 9.34901C4.62813 9.56288 4.64068 9.77382 4.66509 9.98113C4.64661 9.98957 4.62826 9.998 4.61002 10.0064C3.99523 10.2902 3.53661 10.5502 3.25103 10.7667C3.22049 10.7898 3.19304 10.8116 3.16843 10.8321C3.19998 10.8376 3.23467 10.8427 3.27269 10.8475C3.62827 10.8922 4.15543 10.8881 4.82974 10.8264C4.83138 10.8263 4.83301 10.8261 4.83464 10.826ZM2.98682 11.0214C2.98669 11.0217 2.98664 11.0218 2.98666 11.0218L2.98802 11.0191C2.98741 11.0202 2.98703 11.021 2.98682 11.0214ZM16.6423 7.36281L16.6398 7.36116C16.6416 7.36223 16.6423 7.3628 16.6423 7.36281ZM16.5718 7.09971L16.5704 7.10241C16.5709 7.1016 16.5712 7.10097 16.5714 7.10053C16.5717 7.09997 16.5718 7.0997 16.5718 7.09971ZM2.91869 10.7604C2.91689 10.7593 2.9161 10.7587 2.91616 10.7587L2.91869 10.7604Z" fill="#304967"/>
<path fill-rule="evenodd" clip-rule="evenodd" d="M8.05188 10.785C7.98239 10.5283 7.72426 10.3713 7.46352 10.4235C6.47213 10.6223 5.57554 10.7579 4.82946 10.8261C4.15515 10.8878 3.62799 10.892 3.27241 10.8472C3.09217 10.8246 2.98665 10.7929 2.93545 10.7689C2.92673 10.7648 2.92128 10.7618 2.91841 10.7601L2.91646 10.7588C2.91609 10.7586 2.91606 10.7586 2.91643 10.7589C2.91684 10.7591 2.9175 10.7596 2.91841 10.7601C2.98204 10.8059 2.92953 10.8958 2.85379 10.9161L2.50797 11.0087C2.24123 11.0802 2.08325 11.3741 2.29989 11.5453C2.37003 11.6008 2.44385 11.6429 2.51124 11.6745C2.69746 11.7617 2.9198 11.8108 3.14766 11.8394C3.60827 11.8973 4.21826 11.8862 4.92049 11.822C5.70998 11.7498 6.6468 11.6076 7.67344 11.4014C7.95442 11.3449 8.12677 11.0616 8.05188 10.785ZM13.1665 8.83795C12.9193 8.92765 12.7796 9.19094 12.8483 9.44477C12.924 9.72438 13.2207 9.88191 13.4931 9.78324C14.1946 9.52907 14.8267 9.27227 15.3672 9.02279C16.0075 8.72727 16.5413 8.43194 16.9113 8.15148C17.0943 8.01274 17.2623 7.85906 17.3799 7.6904C17.4225 7.62937 17.4654 7.55598 17.4984 7.4729C17.6004 7.21628 17.3166 7.04078 17.0499 7.11225L16.7041 7.20491C16.6283 7.2252 16.5379 7.17363 16.5701 7.10213C16.5711 7.10046 16.571 7.10042 16.5701 7.10213C16.5685 7.10505 16.5653 7.11037 16.5598 7.11827C16.5274 7.16464 16.4519 7.24486 16.3071 7.3546C16.0215 7.57111 15.5629 7.83107 14.9481 8.11485C14.4391 8.34981 13.8382 8.59422 13.1665 8.83795Z" fill="#304967"/>
</svg>
