<svg width="79" height="79" viewBox="0 0 79 79" fill="none" xmlns="http://www.w3.org/2000/svg">
<path d="M40.1204 58.0563C50.3689 58.0563 58.6769 49.7483 58.6769 39.4998C58.6769 29.2514 50.3689 20.9434 40.1204 20.9434C29.872 20.9434 21.564 29.2514 21.564 39.4998C21.564 49.7483 29.872 58.0563 40.1204 58.0563Z" fill="#FF8874"/>
<path d="M48.0522 56.2804C45.6471 57.4192 42.958 58.0563 40.1202 58.0563C30.039 58.0563 21.8354 50.0172 21.5703 40L38.3427 40C40.2757 40 41.8427 38.433 41.8427 36.5C41.8427 34.567 40.2757 33 38.3427 33H22.7339C22.757 32.9383 22.7804 32.8767 22.8041 32.8153C23.1277 32.9348 23.4776 33 23.8427 33H29.8427C31.4996 33 32.8427 31.6569 32.8427 30C32.8427 28.3431 31.4996 27 29.8427 27H26.4052C29.7988 23.2785 34.6868 20.9434 40.1202 20.9434C50.3686 20.9434 58.6766 29.2514 58.6766 39.4998C58.6766 43.3972 57.4751 47.014 55.4222 50H41.9829C40.2486 50 38.8427 51.4059 38.8427 53.1402C38.8427 54.8745 40.2486 56.2804 41.9829 56.2804H48.0522Z" fill="#DF3A1F"/>
<path fill-rule="evenodd" clip-rule="evenodd" d="M71.6602 35.5542C71.9668 34.9447 72.1675 34.1278 71.8627 33.1735C71.3949 31.7088 70.0891 31.0241 69.3466 30.7323C68.5155 30.4056 67.5547 30.2319 66.6085 30.1321C64.6823 29.9289 62.146 29.9689 59.2406 30.1917C58.3217 30.2622 57.3548 30.3519 56.3451 30.4603C57.1726 31.9352 57.804 33.535 58.2037 35.2244C58.8343 35.1625 59.4439 35.109 60.0308 35.064C61.6482 34.9399 63.0564 34.8835 64.2368 34.8878C63.2171 35.3866 61.9639 35.9285 60.4893 36.4995C59.8779 36.7362 59.2344 36.9758 58.5608 37.2173C58.5607 37.2172 58.5608 37.2173 58.5608 37.2173C57.1035 37.7397 55.5056 38.2714 53.789 38.8031C52.4397 39.221 51.6762 40.6556 52.11 41.9999C52.5257 43.2884 53.8907 44.016 55.1854 43.6201C57.995 42.7609 60.5313 41.8938 62.709 41.0505C65.358 40.0247 67.5783 38.9954 69.1254 38.0115C69.8853 37.5281 70.6138 36.9746 71.139 36.3431C71.2953 36.155 71.4799 35.9029 71.6391 35.5961C71.6464 35.5821 71.6534 35.5681 71.6602 35.5542ZM67.0761 33.0878C67.0761 33.0878 67.0689 33.0961 67.0589 33.1119C67.0596 33.1109 67.0604 33.11 67.0611 33.1091C67.0685 33.0977 67.0741 33.09 67.0761 33.0878Z" fill="#304967"/>
<path fill-rule="evenodd" clip-rule="evenodd" d="M12.1058 50.8293C11.757 50.7925 11.4063 50.7457 11.0608 50.6849C10.4689 50.5807 9.89247 50.4354 9.36769 50.2292C8.62522 49.9374 7.31937 49.2526 6.8516 47.788C6.38382 46.3233 7.10663 45.1826 7.57573 44.6184C8.10085 43.9869 8.82937 43.4334 9.58933 42.95C11.1364 41.9661 13.3567 40.9368 16.0057 39.911C17.7187 39.2476 19.6537 38.5695 21.7691 37.8921C21.7235 38.422 21.7002 38.9583 21.7002 39.5C21.7002 40.7272 21.8197 41.9264 22.0476 43.0868C20.6669 43.5513 19.3878 44.0117 18.225 44.4619C16.7504 45.033 15.4972 45.5748 14.4775 46.0737C15.6579 46.078 17.0661 46.0215 18.6835 45.8975C19.9244 45.8023 21.2664 45.6692 22.6946 45.4991C22.6946 45.4991 22.6946 45.4991 22.6946 45.4991C24.7463 45.2548 26.9758 44.9342 29.3382 44.5401C30.5636 44.3356 31.7604 45.0518 32.1419 46.2341C32.6032 47.6636 31.6993 49.1737 30.2171 49.4178C26.224 50.0752 22.5753 50.5319 19.4741 50.7697C16.5686 50.9926 14.032 51.0325 12.1058 50.8293C12.106 50.8293 12.1057 50.8293 12.1058 50.8293ZM10.9459 45.7059C10.9458 45.7059 10.9459 45.706 10.9459 45.7059V45.7059ZM10.9578 45.7119C10.9622 45.714 10.9679 45.7165 10.9752 45.7195C10.9748 45.7193 10.9745 45.7192 10.9741 45.719C10.9674 45.7162 10.962 45.7138 10.9578 45.7119Z" fill="#304967"/>
<path d="M36.6807 34.3286L47.667 40.6716L36.6807 47.0145L36.6807 34.3286Z" fill="white"/>
<mask id="path-5-outside-1_1728_76016" maskUnits="userSpaceOnUse" x="-0.299805" y="14.9199" width="79" height="50" fill="black">
<rect fill="white" x="-0.299805" y="14.9199" width="79" height="50"/>
<path fill-rule="evenodd" clip-rule="evenodd" d="M58.4195 42.5754C56.9445 51.3486 49.3131 58.0328 40.1206 58.0328C33.8592 58.0328 28.3221 54.9317 24.9615 50.1815C22.9933 50.4358 21.1535 50.6287 19.4741 50.7575C16.5686 50.9804 14.032 51.0203 12.1058 50.8171C11.757 50.7803 11.4063 50.7335 11.0608 50.6727C10.4689 50.5685 9.89247 50.4232 9.36769 50.2169C8.62522 49.9251 7.31937 49.2404 6.8516 47.7758C6.38382 46.3111 7.10663 45.1704 7.57573 44.6062C8.10085 43.9747 8.82937 43.4212 9.58933 42.9378C11.1364 41.9539 13.3567 40.9246 16.0057 39.8988C17.6806 39.2501 19.5677 38.5875 21.6281 37.9251C22.4162 28.4025 30.3946 20.9199 40.1206 20.9199C47.1541 20.9199 53.2735 24.833 56.4208 30.6008C56.3985 30.5494 56.3733 30.4985 56.3451 30.4481C57.3548 30.3397 58.3217 30.25 59.2406 30.1795C62.146 29.9567 64.6823 29.9167 66.6085 30.1199C67.5547 30.2197 68.5155 30.3934 69.3466 30.7201C70.0891 31.0119 71.3949 31.6966 71.8627 33.1613C72.1675 34.1156 71.9668 34.9325 71.6602 35.5419C71.6534 35.5559 71.6464 35.5699 71.6391 35.5839C71.4799 35.8907 71.2953 36.1428 71.139 36.3309C70.6138 36.9624 69.8853 37.5159 69.1254 37.9993C67.5783 38.9832 65.358 40.0125 62.709 41.0383C61.4022 41.5444 59.9662 42.059 58.4195 42.5754ZM58.5404 37.2124C58.5472 37.21 58.554 37.2075 58.5608 37.2051C59.2344 36.9636 59.8779 36.724 60.4893 36.4873C61.9639 35.9163 63.2171 35.3744 64.2368 34.8756C63.0564 34.8713 61.6482 34.9277 60.0308 35.0518C59.7675 35.072 59.0088 35.1602 58.1953 35.257C58.344 35.8967 58.4597 36.5492 58.5404 37.2124ZM21.9212 43.1172C20.5887 43.5672 19.3522 44.0132 18.225 44.4497C16.7504 45.0208 15.4972 45.5626 14.4775 46.0615C15.6579 46.0658 17.0661 46.0093 18.6835 45.8852C19.8867 45.793 21.1849 45.665 22.5645 45.5023C22.2991 44.7291 22.0834 43.9327 21.9212 43.1172ZM67.0589 33.0997C67.066 33.0885 67.0717 33.081 67.0744 33.0777C67.0717 33.0812 67.0669 33.0878 67.0611 33.0969L67.0589 33.0997ZM10.9752 45.7073C10.9679 45.7043 10.9622 45.7018 10.9578 45.6997L10.9741 45.7068L10.9752 45.7073Z"/>
</mask>
<path d="M58.4195 42.5754L56.5195 36.8841C54.4152 37.5866 52.8703 39.3929 52.5025 41.5806L58.4195 42.5754ZM24.9615 50.1815L29.8596 46.7162C28.5765 44.9025 26.3962 43.9463 24.1927 44.231L24.9615 50.1815ZM19.4741 50.7575L19.9329 56.74H19.9329L19.4741 50.7575ZM12.1058 50.8171L11.4764 56.784H11.4764L12.1058 50.8171ZM11.0608 50.6727L10.0204 56.5818H10.0204L11.0608 50.6727ZM9.36769 50.2169L11.5624 44.6327L11.5623 44.6327L9.36769 50.2169ZM6.8516 47.7758L1.13602 49.6012H1.13603L6.8516 47.7758ZM7.57573 44.6062L12.1892 48.4423L12.1892 48.4423L7.57573 44.6062ZM9.58933 42.9378L12.8094 48.0006L12.8094 48.0005L9.58933 42.9378ZM16.0057 39.8988L18.1724 45.4939H18.1724L16.0057 39.8988ZM21.6281 37.9251L23.4642 43.6373C25.7727 42.8952 27.4076 40.8366 27.6076 38.42L21.6281 37.9251ZM56.4208 30.6008L51.1539 33.4748C52.6908 36.2914 56.1718 37.4003 59.0547 35.9918C61.9377 34.5832 63.2022 31.1558 61.9249 28.2123L56.4208 30.6008ZM56.3451 30.4481L55.7045 24.4824C53.6997 24.6977 51.937 25.9055 51.0127 27.6975C50.0883 29.4895 50.1259 31.6259 51.1126 33.3843L56.3451 30.4481ZM59.2406 30.1795L58.7818 24.1971L58.7818 24.1971L59.2406 30.1795ZM66.6085 30.1199L67.2379 24.153L67.2379 24.153L66.6085 30.1199ZM69.3466 30.7201L67.152 36.3043L67.152 36.3043L69.3466 30.7201ZM71.8627 33.1613L77.5783 31.3358V31.3358L71.8627 33.1613ZM71.6602 35.5419L66.3004 32.8451C66.2865 32.8726 66.2729 32.9003 66.2595 32.928L71.6602 35.5419ZM71.6391 35.5839L66.314 32.8193L66.3137 32.8198L71.6391 35.5839ZM71.139 36.3309L66.5256 32.4947L66.5254 32.4948L71.139 36.3309ZM69.1254 37.9993L72.3454 43.062L72.3454 43.062L69.1254 37.9993ZM62.709 41.0383L64.8757 46.6334L64.8757 46.6334L62.709 41.0383ZM58.5608 37.2051L56.536 31.5571L56.5355 31.5572L58.5608 37.2051ZM58.5404 37.2124L52.5843 37.9369C52.8045 39.7479 53.8368 41.3603 55.3894 42.3184C56.9419 43.2765 58.8461 43.4762 60.5636 42.861L58.5404 37.2124ZM60.4893 36.4873L62.656 42.0824L62.656 42.0824L60.4893 36.4873ZM64.2368 34.8756L66.8737 40.2651C69.3782 39.0397 70.7086 36.2505 70.0846 33.5329C69.4607 30.8154 67.0469 28.8858 64.2587 28.8756L64.2368 34.8756ZM60.0308 35.0518L59.572 29.0693L59.572 29.0693L60.0308 35.0518ZM58.1953 35.257L57.4865 29.299C55.7924 29.5005 54.2642 30.4137 53.2842 31.8101C52.3041 33.2065 51.9648 34.9542 52.3512 36.6159L58.1953 35.257ZM21.9212 43.1172L27.8059 41.9465C27.4691 40.2534 26.4194 38.7875 24.925 37.9232C23.4307 37.059 21.6366 36.8803 20.0011 37.4327L21.9212 43.1172ZM18.225 44.4497L20.3917 50.0449H20.3917L18.225 44.4497ZM14.4775 46.0615L11.8407 40.6719C9.33611 41.8973 8.00575 44.6865 8.62968 47.4041C9.25361 50.1216 11.6674 52.0512 14.4556 52.0614L14.4775 46.0615ZM18.6835 45.8852L19.1423 51.8677H19.1423L18.6835 45.8852ZM22.5645 45.5023L23.2673 51.461C25.0689 51.2485 26.6777 50.2323 27.6435 48.6966C28.6093 47.1609 28.8285 45.2707 28.2396 43.5548L22.5645 45.5023ZM67.0744 33.0777L71.8009 36.7736C73.833 34.1749 73.386 30.4231 70.8001 28.3746C68.2142 26.3261 64.4597 26.7495 62.3949 29.3224L67.0744 33.0777ZM67.0589 33.0997L61.9976 29.8774C60.2803 32.5748 60.9801 36.145 63.5887 37.9944C66.1974 39.8438 69.798 39.3224 71.7749 36.809L67.0589 33.0997ZM67.0611 33.0969L71.7771 36.8063C71.8913 36.661 71.9988 36.5105 72.0992 36.3553L67.0611 33.0969ZM10.9578 45.6997L13.3463 40.1956C10.3362 38.8894 6.8351 40.2435 5.48731 43.2352C4.13952 46.2269 5.44501 49.7464 8.41778 51.1355L10.9578 45.6997ZM10.9752 45.7073L8.67037 51.247C11.6377 52.4816 15.0509 51.1587 16.4112 48.2468C17.7715 45.335 16.5958 41.8684 13.7448 40.3848L10.9752 45.7073ZM10.9741 45.7068L13.7437 40.3843C13.6189 40.3193 13.4918 40.2587 13.3626 40.2027L10.9741 45.7068ZM40.1206 64.0328C52.2914 64.0328 62.3838 55.1846 64.3364 43.5701L52.5025 41.5806C51.5052 47.5126 46.3349 52.0328 40.1206 52.0328V64.0328ZM20.0634 53.6468C24.5003 59.9184 31.8298 64.0328 40.1206 64.0328V52.0328C35.8886 52.0328 32.1439 49.9449 29.8596 46.7162L20.0634 53.6468ZM24.1927 44.231C22.3106 44.4741 20.5753 44.6555 19.0153 44.7751L19.9329 56.74C21.7316 56.602 23.676 56.3974 25.7303 56.132L24.1927 44.231ZM19.0153 44.7751C16.2514 44.9871 14.1315 44.9975 12.7352 44.8502L11.4764 56.784C13.9325 57.0431 16.8858 56.9736 19.9329 56.74L19.0153 44.7751ZM12.7352 44.8502C12.4949 44.8249 12.2843 44.7958 12.1012 44.7636L10.0204 56.5818C10.5283 56.6712 11.0192 56.7358 11.4764 56.784L12.7352 44.8502ZM12.1012 44.7636C11.7717 44.7056 11.6071 44.6503 11.5624 44.6327L7.17302 55.8012C8.17779 56.196 9.16612 56.4314 10.0204 56.5818L12.1012 44.7636ZM11.5623 44.6327C11.5624 44.6327 11.5657 44.6341 11.5721 44.637C11.5784 44.6399 11.5902 44.6455 11.6071 44.6548C11.637 44.6711 11.7088 44.7128 11.8052 44.7918C12.0105 44.9596 12.3721 45.3395 12.5672 45.9503L1.13603 49.6012C2.45898 53.7435 5.99272 55.3373 7.17303 55.8012L11.5623 44.6327ZM12.5672 45.9503C12.7751 46.6015 12.7161 47.269 12.5504 47.7627C12.4133 48.1711 12.2305 48.3927 12.1892 48.4423L2.96223 40.7701C2.04078 41.8783 -0.275491 45.1817 1.13602 49.6012L12.5672 45.9503ZM12.1892 48.4423C12.1395 48.5021 12.1494 48.4774 12.2717 48.3782C12.3901 48.2823 12.5646 48.1562 12.8094 48.0006L6.36929 37.8751C5.39944 38.4919 4.06922 39.4388 2.96222 40.7701L12.1892 48.4423ZM12.8094 48.0005C13.8618 47.3312 15.6539 46.4692 18.1724 45.4939L13.839 34.3036C11.0595 35.38 8.41089 36.5766 6.36928 37.8751L12.8094 48.0005ZM18.1724 45.4939C19.7196 44.8947 21.4943 44.2705 23.4642 43.6373L19.7919 32.213C17.641 32.9044 15.6416 33.6056 13.839 34.3036L18.1724 45.4939ZM40.1206 14.9199C27.2468 14.9199 16.692 24.8224 15.6485 37.4303L27.6076 38.42C28.1404 31.9827 33.5424 26.9199 40.1206 26.9199V14.9199ZM61.6877 27.7269C57.5312 20.1095 49.4363 14.9199 40.1206 14.9199V26.9199C44.8718 26.9199 49.0159 29.5565 51.1539 33.4748L61.6877 27.7269ZM51.1126 33.3843C51.0409 33.2566 50.9755 33.1247 50.9167 32.9893L61.9249 28.2123C61.8216 27.9741 61.7057 27.7404 61.5775 27.512L51.1126 33.3843ZM58.7818 24.1971C57.7965 24.2727 56.7687 24.3681 55.7045 24.4824L56.9857 36.4138C57.9408 36.3113 58.8469 36.2274 59.6994 36.162L58.7818 24.1971ZM67.2379 24.153C64.7818 23.8939 61.8287 23.9634 58.7818 24.1971L59.6994 36.162C62.4633 35.95 64.5828 35.9395 65.9791 36.0868L67.2379 24.153ZM71.5413 25.1359C69.9872 24.5251 68.4182 24.2775 67.2379 24.153L65.9791 36.0868C66.6912 36.1619 67.0437 36.2617 67.152 36.3043L71.5413 25.1359ZM77.5783 31.3358C76.2553 27.1936 72.7216 25.5997 71.5413 25.1359L67.152 36.3043C67.1519 36.3043 67.1486 36.303 67.1422 36.3C67.1359 36.2972 67.1241 36.2915 67.1072 36.2822C67.0773 36.2659 67.0055 36.2242 66.9091 36.1453C66.7038 35.9774 66.3422 35.5975 66.1471 34.9867L77.5783 31.3358ZM77.0199 38.2388C77.8397 36.6095 78.4771 34.1501 77.5783 31.3358L66.1471 34.9867C66.0226 34.5966 65.9839 34.158 66.0379 33.7302C66.0887 33.3271 66.209 33.0267 66.3004 32.8451L77.0199 38.2388ZM76.9642 38.3485C76.9969 38.2856 77.0291 38.2214 77.0608 38.1559L66.2595 32.928C66.2777 32.8904 66.2959 32.8541 66.314 32.8193L76.9642 38.3485ZM75.7524 40.1671C76.1036 39.7446 76.5566 39.1339 76.9645 38.3481L66.3137 32.8198C66.4031 32.6476 66.487 32.541 66.5256 32.4947L75.7524 40.1671ZM72.3454 43.062C73.3152 42.4451 74.6455 41.4983 75.7525 40.1669L66.5254 32.4948C66.5752 32.435 66.5653 32.4597 66.4429 32.5589C66.3245 32.6548 66.15 32.7809 65.9053 32.9365L72.3454 43.062ZM64.8757 46.6334C67.6552 45.5571 70.3038 44.3605 72.3454 43.062L65.9053 32.9365C64.8528 33.6059 63.0608 34.4679 60.5423 35.4432L64.8757 46.6334ZM60.3194 48.2666C61.942 47.7249 63.4682 47.1785 64.8757 46.6334L60.5423 35.4432C59.3361 35.9103 57.9903 36.3931 56.5195 36.8841L60.3194 48.2666ZM56.5355 31.5572C56.53 31.5592 56.5245 31.5612 56.5171 31.5638L60.5636 42.861C60.5698 42.8587 60.5779 42.8558 60.586 42.8529L56.5355 31.5572ZM58.3226 30.8922C57.7621 31.1092 57.1661 31.3312 56.536 31.5571L60.5856 42.8531C61.3026 42.596 61.9937 42.3389 62.656 42.0824L58.3226 30.8922ZM61.5999 29.486C60.7716 29.8913 59.6821 30.3657 58.3226 30.8922L62.656 42.0824C64.2456 41.4668 65.6627 40.8576 66.8737 40.2651L61.5999 29.486ZM60.4896 41.0342C61.9893 40.9192 63.2323 40.8719 64.2149 40.8755L64.2587 28.8756C62.8806 28.8706 61.3071 28.9363 59.572 29.0693L60.4896 41.0342ZM58.904 41.215C59.3087 41.1669 59.6876 41.1223 59.9939 41.0876C60.1472 41.0703 60.2735 41.0564 60.3707 41.0463C60.4817 41.0347 60.5104 41.0326 60.4896 41.0342L59.572 29.0693C59.1481 29.1019 58.2189 29.2119 57.4865 29.299L58.904 41.215ZM64.4965 36.4879C64.3897 35.6104 64.2365 34.7462 64.0394 33.8981L52.3512 36.6159C52.4515 37.0473 52.5296 37.488 52.5843 37.9369L64.4965 36.4879ZM20.0011 37.4327C18.598 37.9066 17.2782 38.3822 16.0583 38.8546L20.3917 50.0449C21.4262 49.6443 22.5795 49.2279 23.8413 48.8017L20.0011 37.4327ZM16.0583 38.8546C14.4687 39.4702 13.0517 40.0794 11.8407 40.6719L17.1144 51.451C17.9427 51.0457 19.0322 50.5713 20.3917 50.0449L16.0583 38.8546ZM14.4556 52.0614C15.8338 52.0665 17.4072 52.0007 19.1423 51.8677L18.2247 39.9028C16.7251 40.0178 15.482 40.0651 14.4994 40.0615L14.4556 52.0614ZM19.1423 51.8677C20.4373 51.7684 21.8176 51.632 23.2673 51.461L21.8617 39.5436C20.5522 39.6981 19.336 39.8176 18.2247 39.9028L19.1423 51.8677ZM16.0365 44.2878C16.2515 45.3687 16.5375 46.4244 16.8893 47.4498L28.2396 43.5548C28.0608 43.0337 27.9154 42.4968 27.8059 41.9465L16.0365 44.2878ZM62.3949 29.3224C62.2708 29.4771 62.1347 29.662 61.9976 29.8774L72.1202 36.322C71.9973 36.5149 71.8727 36.685 71.7539 36.833L62.3949 29.3224ZM72.0992 36.3553C72.0661 36.4064 72.029 36.462 71.9876 36.5213C71.9528 36.5711 71.888 36.6623 71.8009 36.7736L62.3479 29.3817C62.1945 29.5778 62.0826 29.7463 62.0229 29.8385L72.0992 36.3553ZM71.7749 36.809L71.7771 36.8063L62.3451 29.3876L62.3429 29.3903L71.7749 36.809ZM8.41778 51.1355C8.5034 51.1755 8.58771 51.2126 8.67037 51.247L13.2799 40.1676C13.3481 40.196 13.421 40.228 13.4978 40.2639L8.41778 51.1355ZM13.3626 40.2027L13.3463 40.1956L8.56931 51.2038L8.58564 51.2109L13.3626 40.2027ZM13.7448 40.3848L13.7437 40.3843L8.20453 51.0293L8.20554 51.0298L13.7448 40.3848Z" fill="black" mask="url(#path-5-outside-1_1728_76016)"/>
</svg>
