<svg width="198" height="198" viewBox="0 0 198 198" fill="none" xmlns="http://www.w3.org/2000/svg">
<rect width="198" height="198" fill="white"/>
<path fill-rule="evenodd" clip-rule="evenodd" d="M99.5853 134.171C133.369 134.171 160.756 106.784 160.756 73C160.756 39.2164 133.369 11.8294 99.5853 11.8294C65.8017 11.8294 38.4147 39.2164 38.4147 73C38.4147 106.784 65.8017 134.171 99.5853 134.171ZM99.5853 118.878C124.923 118.878 145.463 98.3377 145.463 73C145.463 47.6623 124.923 27.122 99.5853 27.122C74.2476 27.122 53.7073 47.6623 53.7073 73C53.7073 98.3377 74.2476 118.878 99.5853 118.878Z" fill="url(#paint0_linear_2_9)"/>
<path d="M142.987 29.1594C153.048 39.3021 159.309 52.648 160.704 66.9229C162.098 81.1979 158.54 95.5187 150.635 107.445C142.731 119.372 130.968 128.166 117.353 132.33C103.737 136.494 89.1103 135.77 75.965 130.281C62.8197 124.791 51.969 114.877 45.2618 102.227C38.5546 89.5763 36.4059 74.9728 39.1817 60.9044C41.9575 46.836 49.4862 34.1731 60.4848 25.0734C71.4835 15.9736 85.2717 11 99.5 11L99.5 73L142.987 29.1594Z" fill="white" fill-opacity="0.7"/>
<path d="M80.4787 72V63.6H81.6427L86.7787 70.476L86.5867 70.584C86.5307 70.256 86.4827 69.876 86.4427 69.444C86.4107 69.012 86.3867 68.536 86.3707 68.016C86.3547 67.496 86.3467 66.944 86.3467 66.36V63.6H87.6427V72H86.4547L81.4027 65.376L81.5347 65.208C81.5907 65.816 81.6347 66.316 81.6667 66.708C81.6987 67.092 81.7227 67.4 81.7387 67.632C81.7547 67.864 81.7627 68.048 81.7627 68.184C81.7707 68.312 81.7747 68.42 81.7747 68.508V72H80.4787ZM92.5144 72.12C91.8984 72.12 91.3464 71.98 90.8584 71.7C90.3784 71.412 89.9984 71.024 89.7184 70.536C89.4384 70.04 89.2984 69.476 89.2984 68.844C89.2984 68.212 89.4384 67.652 89.7184 67.164C89.9984 66.668 90.3784 66.28 90.8584 66C91.3464 65.712 91.8984 65.568 92.5144 65.568C93.1224 65.568 93.6664 65.712 94.1464 66C94.6344 66.28 95.0184 66.668 95.2984 67.164C95.5784 67.652 95.7184 68.212 95.7184 68.844C95.7184 69.476 95.5784 70.04 95.2984 70.536C95.0184 71.024 94.6344 71.412 94.1464 71.7C93.6664 71.98 93.1224 72.12 92.5144 72.12ZM92.5144 70.992C92.8904 70.992 93.2264 70.9 93.5224 70.716C93.8184 70.524 94.0504 70.268 94.2184 69.948C94.3864 69.62 94.4664 69.252 94.4584 68.844C94.4664 68.428 94.3864 68.06 94.2184 67.74C94.0504 67.412 93.8184 67.156 93.5224 66.972C93.2264 66.788 92.8904 66.696 92.5144 66.696C92.1384 66.696 91.7984 66.792 91.4944 66.984C91.1984 67.168 90.9664 67.424 90.7984 67.752C90.6304 68.072 90.5504 68.436 90.5584 68.844C90.5504 69.252 90.6304 69.62 90.7984 69.948C90.9664 70.268 91.1984 70.524 91.4944 70.716C91.7984 70.9 92.1384 70.992 92.5144 70.992ZM98.9534 72L96.2894 65.7H97.6214L99.5414 70.416L99.3134 70.524L101.365 65.7H102.637L99.8414 72H98.9534ZM103.972 72V65.7H105.208V72H103.972ZM104.572 64.308C104.308 64.308 104.104 64.24 103.96 64.104C103.816 63.968 103.744 63.776 103.744 63.528C103.744 63.296 103.816 63.108 103.96 62.964C104.112 62.82 104.316 62.748 104.572 62.748C104.836 62.748 105.04 62.816 105.184 62.952C105.328 63.088 105.4 63.28 105.4 63.528C105.4 63.76 105.324 63.948 105.172 64.092C105.028 64.236 104.828 64.308 104.572 64.308ZM109.784 72.12C109.2 72.12 108.676 71.976 108.212 71.688C107.756 71.4 107.392 71.008 107.12 70.512C106.856 70.016 106.724 69.46 106.724 68.844C106.724 68.228 106.856 67.672 107.12 67.176C107.392 66.68 107.756 66.288 108.212 66C108.676 65.712 109.2 65.568 109.784 65.568C110.344 65.568 110.852 65.684 111.308 65.916C111.772 66.14 112.124 66.448 112.364 66.84L111.68 67.68C111.552 67.496 111.388 67.328 111.188 67.176C110.988 67.024 110.776 66.904 110.552 66.816C110.328 66.728 110.112 66.684 109.904 66.684C109.52 66.684 109.176 66.78 108.872 66.972C108.576 67.156 108.34 67.412 108.164 67.74C107.988 68.068 107.9 68.436 107.9 68.844C107.9 69.252 107.992 69.62 108.176 69.948C108.36 70.268 108.604 70.524 108.908 70.716C109.212 70.908 109.548 71.004 109.916 71.004C110.132 71.004 110.34 70.968 110.54 70.896C110.748 70.824 110.948 70.716 111.14 70.572C111.332 70.428 111.512 70.252 111.68 70.044L112.364 70.884C112.108 71.244 111.74 71.54 111.26 71.772C110.788 72.004 110.296 72.12 109.784 72.12ZM116.47 72.12C115.822 72.12 115.246 71.984 114.742 71.712C114.246 71.432 113.854 71.052 113.566 70.572C113.286 70.092 113.146 69.54 113.146 68.916C113.146 68.42 113.226 67.968 113.386 67.56C113.546 67.152 113.766 66.8 114.046 66.504C114.334 66.2 114.674 65.968 115.066 65.808C115.466 65.64 115.898 65.556 116.362 65.556C116.77 65.556 117.15 65.636 117.502 65.796C117.854 65.948 118.158 66.16 118.414 66.432C118.678 66.704 118.878 67.028 119.014 67.404C119.158 67.772 119.226 68.176 119.218 68.616L119.206 69.144H114.058L113.782 68.16H118.138L117.958 68.364V68.076C117.934 67.812 117.846 67.576 117.694 67.368C117.542 67.16 117.35 66.996 117.118 66.876C116.886 66.756 116.634 66.696 116.362 66.696C115.93 66.696 115.566 66.78 115.27 66.948C114.974 67.108 114.75 67.348 114.598 67.668C114.446 67.98 114.37 68.368 114.37 68.832C114.37 69.272 114.462 69.656 114.646 69.984C114.83 70.304 115.09 70.552 115.426 70.728C115.762 70.904 116.15 70.992 116.59 70.992C116.902 70.992 117.19 70.94 117.454 70.836C117.726 70.732 118.018 70.544 118.33 70.272L118.954 71.148C118.762 71.34 118.526 71.508 118.246 71.652C117.974 71.796 117.682 71.912 117.37 72C117.066 72.08 116.766 72.12 116.47 72.12ZM84.1527 83.952L79.8207 81.468V80.496L84.1527 78.012L84.7287 78.912L80.4207 81.384V80.58L84.7287 83.052L84.1527 83.952ZM87.8833 83.412V76.596L88.3273 76.932L86.6713 77.808L86.3233 76.68L88.5673 75.48H89.1913V83.412H87.8833ZM86.5513 84V82.752H90.5593V84H86.5513ZM96.5626 86.76L97.8346 83.82L97.8466 84.804L94.7026 77.7H96.1426L98.1106 82.332C98.1506 82.412 98.1986 82.536 98.2546 82.704C98.3106 82.864 98.3586 83.024 98.3986 83.184L98.0866 83.256C98.1506 83.088 98.2106 82.92 98.2666 82.752C98.3306 82.584 98.3906 82.416 98.4466 82.248L100.091 77.7H101.555L98.9626 84L97.8946 86.76H96.5626ZM105.302 84.12C104.654 84.12 104.078 83.984 103.574 83.712C103.078 83.432 102.686 83.052 102.398 82.572C102.118 82.092 101.978 81.54 101.978 80.916C101.978 80.42 102.058 79.968 102.218 79.56C102.378 79.152 102.598 78.8 102.878 78.504C103.166 78.2 103.506 77.968 103.898 77.808C104.298 77.64 104.73 77.556 105.194 77.556C105.602 77.556 105.982 77.636 106.334 77.796C106.686 77.948 106.99 78.16 107.246 78.432C107.51 78.704 107.71 79.028 107.846 79.404C107.99 79.772 108.058 80.176 108.05 80.616L108.038 81.144H102.89L102.614 80.16H106.97L106.79 80.364V80.076C106.766 79.812 106.678 79.576 106.526 79.368C106.374 79.16 106.182 78.996 105.95 78.876C105.718 78.756 105.466 78.696 105.194 78.696C104.762 78.696 104.398 78.78 104.102 78.948C103.806 79.108 103.582 79.348 103.43 79.668C103.278 79.98 103.202 80.368 103.202 80.832C103.202 81.272 103.294 81.656 103.478 81.984C103.662 82.304 103.922 82.552 104.258 82.728C104.594 82.904 104.982 82.992 105.422 82.992C105.734 82.992 106.022 82.94 106.286 82.836C106.558 82.732 106.85 82.544 107.162 82.272L107.786 83.148C107.594 83.34 107.358 83.508 107.078 83.652C106.806 83.796 106.514 83.912 106.202 84C105.898 84.08 105.598 84.12 105.302 84.12ZM113.125 84V79.896C113.125 79.544 112.997 79.26 112.741 79.044C112.493 78.82 112.177 78.708 111.793 78.708C111.441 78.708 111.121 78.78 110.833 78.924C110.553 79.068 110.297 79.288 110.065 79.584L109.261 78.78C109.637 78.372 110.041 78.068 110.473 77.868C110.913 77.668 111.385 77.568 111.889 77.568C112.369 77.568 112.785 77.648 113.137 77.808C113.489 77.968 113.761 78.204 113.953 78.516C114.145 78.82 114.241 79.192 114.241 79.632V84H113.125ZM111.241 84.12C110.833 84.12 110.469 84.04 110.149 83.88C109.829 83.72 109.573 83.5 109.381 83.22C109.197 82.932 109.105 82.596 109.105 82.212C109.105 81.876 109.165 81.58 109.285 81.324C109.405 81.068 109.581 80.856 109.813 80.688C110.053 80.52 110.349 80.392 110.701 80.304C111.061 80.216 111.473 80.172 111.937 80.172H113.689L113.581 81.156H111.781C111.541 81.156 111.325 81.18 111.133 81.228C110.949 81.268 110.789 81.336 110.653 81.432C110.525 81.52 110.429 81.628 110.365 81.756C110.301 81.876 110.269 82.02 110.269 82.188C110.269 82.364 110.313 82.52 110.401 82.656C110.489 82.784 110.609 82.884 110.761 82.956C110.913 83.028 111.089 83.064 111.289 83.064C111.577 83.064 111.849 83.016 112.105 82.92C112.369 82.816 112.601 82.676 112.801 82.5C113.009 82.324 113.169 82.128 113.281 81.912L113.569 82.716C113.401 82.996 113.193 83.24 112.945 83.448C112.697 83.656 112.429 83.82 112.141 83.94C111.853 84.06 111.553 84.12 111.241 84.12ZM115.803 84V77.7H117.051V79.68L116.931 79.2C117.019 78.896 117.167 78.62 117.375 78.372C117.591 78.124 117.835 77.928 118.107 77.784C118.387 77.64 118.675 77.568 118.971 77.568C119.107 77.568 119.235 77.58 119.355 77.604C119.483 77.628 119.583 77.656 119.655 77.688L119.331 79.032C119.235 78.992 119.127 78.96 119.007 78.936C118.895 78.904 118.783 78.888 118.671 78.888C118.455 78.888 118.247 78.932 118.047 79.02C117.855 79.1 117.683 79.216 117.531 79.368C117.387 79.512 117.271 79.684 117.183 79.884C117.095 80.076 117.051 80.288 117.051 80.52V84H115.803Z" fill="black"/>
<path d="M68.4265 164.2C67.2798 164.2 66.2665 163.973 65.3865 163.52C64.5198 163.067 63.7732 162.387 63.1465 161.48L64.6265 159.78C65.2798 160.713 65.9065 161.36 66.5065 161.72C67.1065 162.08 67.8198 162.26 68.6465 162.26C69.1532 162.26 69.6132 162.18 70.0265 162.02C70.4398 161.86 70.7665 161.64 71.0065 161.36C71.2465 161.08 71.3665 160.76 71.3665 160.4C71.3665 160.16 71.3265 159.933 71.2465 159.72C71.1665 159.507 71.0398 159.313 70.8665 159.14C70.7065 158.967 70.4932 158.807 70.2265 158.66C69.9732 158.513 69.6732 158.387 69.3265 158.28C68.9798 158.16 68.5798 158.06 68.1265 157.98C67.4065 157.833 66.7798 157.64 66.2465 157.4C65.7132 157.16 65.2665 156.86 64.9065 156.5C64.5465 156.14 64.2798 155.733 64.1065 155.28C63.9332 154.813 63.8465 154.293 63.8465 153.72C63.8465 152.96 64.0598 152.287 64.4865 151.7C64.9132 151.113 65.4865 150.653 66.2065 150.32C66.9398 149.973 67.7598 149.8 68.6665 149.8C69.7465 149.8 70.6865 150.013 71.4865 150.44C72.2998 150.853 72.9398 151.46 73.4065 152.26L71.8865 153.76C71.4865 153.107 71.0065 152.607 70.4465 152.26C69.8998 151.913 69.2865 151.74 68.6065 151.74C68.0865 151.74 67.6332 151.82 67.2465 151.98C66.8598 152.14 66.5532 152.367 66.3265 152.66C66.1132 152.94 66.0065 153.273 66.0065 153.66C66.0065 153.94 66.0598 154.2 66.1665 154.44C66.2732 154.667 66.4332 154.873 66.6465 155.06C66.8732 155.233 67.1732 155.393 67.5465 155.54C67.9198 155.673 68.3665 155.793 68.8865 155.9C69.6198 156.06 70.2732 156.267 70.8465 156.52C71.4198 156.76 71.9065 157.047 72.3065 157.38C72.7065 157.713 73.0065 158.087 73.2065 158.5C73.4198 158.913 73.5265 159.36 73.5265 159.84C73.5265 160.733 73.3198 161.507 72.9065 162.16C72.4932 162.813 71.9065 163.32 71.1465 163.68C70.3865 164.027 69.4798 164.2 68.4265 164.2ZM76.067 168.4V153.5H78.147V155.9L77.827 155.72C77.907 155.32 78.1336 154.94 78.507 154.58C78.8803 154.207 79.3336 153.907 79.867 153.68C80.4136 153.44 80.9736 153.32 81.547 153.32C82.4936 153.32 83.3336 153.553 84.067 154.02C84.8003 154.487 85.3803 155.127 85.807 155.94C86.2336 156.753 86.447 157.687 86.447 158.74C86.447 159.78 86.2336 160.713 85.807 161.54C85.3936 162.353 84.8203 163 84.087 163.48C83.3536 163.947 82.527 164.18 81.607 164.18C80.9936 164.18 80.4003 164.06 79.827 163.82C79.2536 163.567 78.767 163.247 78.367 162.86C77.967 162.473 77.7203 162.073 77.627 161.66L78.147 161.38V168.4H76.067ZM81.267 162.28C81.8803 162.28 82.427 162.127 82.907 161.82C83.387 161.513 83.767 161.093 84.047 160.56C84.327 160.027 84.467 159.42 84.467 158.74C84.467 158.06 84.327 157.46 84.047 156.94C83.7803 156.407 83.407 155.987 82.927 155.68C82.447 155.373 81.8936 155.22 81.267 155.22C80.6403 155.22 80.087 155.373 79.607 155.68C79.127 155.973 78.747 156.387 78.467 156.92C78.187 157.453 78.047 158.06 78.047 158.74C78.047 159.42 78.187 160.027 78.467 160.56C78.747 161.093 79.127 161.513 79.607 161.82C80.087 162.127 80.6403 162.28 81.267 162.28ZM94.9041 164V157.16C94.9041 156.573 94.6908 156.1 94.2641 155.74C93.8508 155.367 93.3241 155.18 92.6841 155.18C92.0975 155.18 91.5641 155.3 91.0841 155.54C90.6175 155.78 90.1908 156.147 89.8041 156.64L88.4641 155.3C89.0908 154.62 89.7641 154.113 90.4841 153.78C91.2175 153.447 92.0041 153.28 92.8441 153.28C93.6441 153.28 94.3375 153.413 94.9241 153.68C95.5108 153.947 95.9641 154.34 96.2841 154.86C96.6041 155.367 96.7641 155.987 96.7641 156.72V164H94.9041ZM91.7641 164.2C91.0841 164.2 90.4775 164.067 89.9441 163.8C89.4108 163.533 88.9841 163.167 88.6641 162.7C88.3575 162.22 88.2041 161.66 88.2041 161.02C88.2041 160.46 88.3041 159.967 88.5041 159.54C88.7041 159.113 88.9975 158.76 89.3841 158.48C89.7841 158.2 90.2775 157.987 90.8641 157.84C91.4641 157.693 92.1508 157.62 92.9241 157.62H95.8441L95.6641 159.26H92.6641C92.2641 159.26 91.9041 159.3 91.5841 159.38C91.2775 159.447 91.0108 159.56 90.7841 159.72C90.5708 159.867 90.4108 160.047 90.3041 160.26C90.1975 160.46 90.1441 160.7 90.1441 160.98C90.1441 161.273 90.2175 161.533 90.3641 161.76C90.5108 161.973 90.7108 162.14 90.9641 162.26C91.2175 162.38 91.5108 162.44 91.8441 162.44C92.3241 162.44 92.7775 162.36 93.2041 162.2C93.6441 162.027 94.0308 161.793 94.3641 161.5C94.7108 161.207 94.9775 160.88 95.1641 160.52L95.6441 161.86C95.3641 162.327 95.0175 162.733 94.6041 163.08C94.1908 163.427 93.7441 163.7 93.2641 163.9C92.7841 164.1 92.2841 164.2 91.7641 164.2ZM99.3677 164V153.5H101.428V155.66L101.068 155.9C101.201 155.433 101.461 155.007 101.848 154.62C102.234 154.22 102.694 153.9 103.228 153.66C103.761 153.407 104.308 153.28 104.868 153.28C105.668 153.28 106.334 153.44 106.868 153.76C107.401 154.067 107.801 154.54 108.068 155.18C108.334 155.82 108.468 156.627 108.468 157.6V164H106.408V157.74C106.408 157.14 106.328 156.647 106.168 156.26C106.008 155.86 105.761 155.573 105.428 155.4C105.094 155.213 104.681 155.133 104.188 155.16C103.788 155.16 103.421 155.227 103.088 155.36C102.754 155.48 102.461 155.653 102.208 155.88C101.968 156.107 101.774 156.373 101.628 156.68C101.494 156.973 101.428 157.293 101.428 157.64V164H100.408C100.234 164 100.061 164 99.8877 164C99.7144 164 99.5411 164 99.3677 164ZM111.602 164V153.5H113.662V164H111.602ZM112.602 151.18C112.162 151.18 111.822 151.067 111.582 150.84C111.342 150.613 111.222 150.293 111.222 149.88C111.222 149.493 111.342 149.18 111.582 148.94C111.836 148.7 112.176 148.58 112.602 148.58C113.042 148.58 113.382 148.693 113.622 148.92C113.862 149.147 113.982 149.467 113.982 149.88C113.982 150.267 113.856 150.58 113.602 150.82C113.362 151.06 113.029 151.18 112.602 151.18ZM120.329 164.2C119.449 164.2 118.655 164.047 117.949 163.74C117.242 163.433 116.655 162.98 116.189 162.38L117.589 161.18C117.989 161.647 118.422 161.987 118.889 162.2C119.369 162.4 119.909 162.5 120.509 162.5C120.749 162.5 120.969 162.473 121.169 162.42C121.382 162.353 121.562 162.26 121.709 162.14C121.869 162.02 121.989 161.88 122.069 161.72C122.149 161.547 122.189 161.36 122.189 161.16C122.189 160.813 122.062 160.533 121.809 160.32C121.675 160.227 121.462 160.127 121.169 160.02C120.889 159.9 120.522 159.78 120.069 159.66C119.295 159.46 118.662 159.233 118.169 158.98C117.675 158.727 117.295 158.44 117.029 158.12C116.829 157.867 116.682 157.593 116.589 157.3C116.495 156.993 116.449 156.66 116.449 156.3C116.449 155.713 116.615 155.193 116.949 154.74C117.282 154.287 117.729 153.933 118.289 153.68C118.862 153.413 119.502 153.28 120.209 153.28C120.702 153.28 121.189 153.347 121.669 153.48C122.162 153.613 122.615 153.807 123.029 154.06C123.442 154.313 123.789 154.613 124.069 154.96L122.889 156.26C122.635 156.007 122.355 155.787 122.049 155.6C121.755 155.4 121.455 155.247 121.149 155.14C120.842 155.033 120.562 154.98 120.309 154.98C120.029 154.98 119.775 155.007 119.549 155.06C119.322 155.113 119.129 155.193 118.969 155.3C118.822 155.407 118.709 155.54 118.629 155.7C118.549 155.86 118.509 156.04 118.509 156.24C118.522 156.413 118.562 156.58 118.629 156.74C118.709 156.887 118.815 157.013 118.949 157.12C119.095 157.227 119.315 157.34 119.609 157.46C119.902 157.58 120.275 157.693 120.729 157.8C121.395 157.973 121.942 158.167 122.369 158.38C122.809 158.58 123.155 158.813 123.409 159.08C123.675 159.333 123.862 159.627 123.969 159.96C124.075 160.293 124.129 160.667 124.129 161.08C124.129 161.68 123.955 162.22 123.609 162.7C123.275 163.167 122.822 163.533 122.249 163.8C121.675 164.067 121.035 164.2 120.329 164.2ZM126.399 164V149.2H128.459V155.66L128.099 155.9C128.232 155.433 128.492 155.007 128.879 154.62C129.266 154.22 129.726 153.9 130.259 153.66C130.792 153.407 131.339 153.28 131.899 153.28C132.699 153.28 133.366 153.44 133.899 153.76C134.432 154.067 134.832 154.54 135.099 155.18C135.366 155.82 135.499 156.627 135.499 157.6V164H133.439V157.74C133.439 157.14 133.359 156.647 133.199 156.26C133.039 155.86 132.792 155.573 132.459 155.4C132.126 155.213 131.712 155.133 131.219 155.16C130.819 155.16 130.452 155.227 130.119 155.36C129.786 155.48 129.492 155.653 129.239 155.88C128.999 156.107 128.806 156.373 128.659 156.68C128.526 156.973 128.459 157.293 128.459 157.64V164H127.439C127.266 164 127.092 164 126.919 164C126.746 164 126.572 164 126.399 164ZM76.4731 184.12C75.7851 184.12 75.1771 183.984 74.6491 183.712C74.1291 183.44 73.6811 183.032 73.3051 182.488L74.1931 181.468C74.5851 182.028 74.9611 182.416 75.3211 182.632C75.6811 182.848 76.1091 182.956 76.6051 182.956C76.9091 182.956 77.1851 182.908 77.4331 182.812C77.6811 182.716 77.8771 182.584 78.0211 182.416C78.1651 182.248 78.2371 182.056 78.2371 181.84C78.2371 181.696 78.2131 181.56 78.1651 181.432C78.1171 181.304 78.0411 181.188 77.9371 181.084C77.8411 180.98 77.7131 180.884 77.5531 180.796C77.4011 180.708 77.2211 180.632 77.0131 180.568C76.8051 180.496 76.5651 180.436 76.2931 180.388C75.8611 180.3 75.4851 180.184 75.1651 180.04C74.8451 179.896 74.5771 179.716 74.3611 179.5C74.1451 179.284 73.9851 179.04 73.8811 178.768C73.7771 178.488 73.7251 178.176 73.7251 177.832C73.7251 177.376 73.8531 176.972 74.1091 176.62C74.3651 176.268 74.7091 175.992 75.1411 175.792C75.5811 175.584 76.0731 175.48 76.6171 175.48C77.2651 175.48 77.8291 175.608 78.3091 175.864C78.7971 176.112 79.1811 176.476 79.4611 176.956L78.5491 177.856C78.3091 177.464 78.0211 177.164 77.6851 176.956C77.3571 176.748 76.9891 176.644 76.5811 176.644C76.2691 176.644 75.9971 176.692 75.7651 176.788C75.5331 176.884 75.3491 177.02 75.2131 177.196C75.0851 177.364 75.0211 177.564 75.0211 177.796C75.0211 177.964 75.0531 178.12 75.1171 178.264C75.1811 178.4 75.2771 178.524 75.4051 178.636C75.5411 178.74 75.7211 178.836 75.9451 178.924C76.1691 179.004 76.4371 179.076 76.7491 179.14C77.1891 179.236 77.5811 179.36 77.9251 179.512C78.2691 179.656 78.5611 179.828 78.8011 180.028C79.0411 180.228 79.2211 180.452 79.3411 180.7C79.4691 180.948 79.5331 181.216 79.5331 181.504C79.5331 182.04 79.4091 182.504 79.1611 182.896C78.9131 183.288 78.5611 183.592 78.1051 183.808C77.6491 184.016 77.1051 184.12 76.4731 184.12ZM81.0574 186.64V177.7H82.3054V179.14L82.1134 179.032C82.1614 178.792 82.2974 178.564 82.5214 178.348C82.7454 178.124 83.0174 177.944 83.3374 177.808C83.6654 177.664 84.0014 177.592 84.3454 177.592C84.9134 177.592 85.4174 177.732 85.8574 178.012C86.2974 178.292 86.6454 178.676 86.9014 179.164C87.1574 179.652 87.2854 180.212 87.2854 180.844C87.2854 181.468 87.1574 182.028 86.9014 182.524C86.6534 183.012 86.3094 183.4 85.8694 183.688C85.4294 183.968 84.9334 184.108 84.3814 184.108C84.0134 184.108 83.6574 184.036 83.3134 183.892C82.9694 183.74 82.6774 183.548 82.4374 183.316C82.1974 183.084 82.0494 182.844 81.9934 182.596L82.3054 182.428V186.64H81.0574ZM84.1774 182.968C84.5454 182.968 84.8734 182.876 85.1614 182.692C85.4494 182.508 85.6774 182.256 85.8454 181.936C86.0134 181.616 86.0974 181.252 86.0974 180.844C86.0974 180.436 86.0134 180.076 85.8454 179.764C85.6854 179.444 85.4614 179.192 85.1734 179.008C84.8854 178.824 84.5534 178.732 84.1774 178.732C83.8014 178.732 83.4694 178.824 83.1814 179.008C82.8934 179.184 82.6654 179.432 82.4974 179.752C82.3294 180.072 82.2454 180.436 82.2454 180.844C82.2454 181.252 82.3294 181.616 82.4974 181.936C82.6654 182.256 82.8934 182.508 83.1814 182.692C83.4694 182.876 83.8014 182.968 84.1774 182.968ZM91.5677 184.12C90.9197 184.12 90.3437 183.984 89.8397 183.712C89.3437 183.432 88.9517 183.052 88.6637 182.572C88.3837 182.092 88.2437 181.54 88.2437 180.916C88.2437 180.42 88.3237 179.968 88.4837 179.56C88.6437 179.152 88.8637 178.8 89.1437 178.504C89.4317 178.2 89.7717 177.968 90.1637 177.808C90.5637 177.64 90.9957 177.556 91.4597 177.556C91.8677 177.556 92.2477 177.636 92.5997 177.796C92.9517 177.948 93.2557 178.16 93.5117 178.432C93.7757 178.704 93.9757 179.028 94.1117 179.404C94.2557 179.772 94.3237 180.176 94.3157 180.616L94.3037 181.144H89.1557L88.8797 180.16H93.2357L93.0557 180.364V180.076C93.0317 179.812 92.9437 179.576 92.7917 179.368C92.6397 179.16 92.4477 178.996 92.2157 178.876C91.9837 178.756 91.7317 178.696 91.4597 178.696C91.0277 178.696 90.6637 178.78 90.3677 178.948C90.0717 179.108 89.8477 179.348 89.6957 179.668C89.5437 179.98 89.4677 180.368 89.4677 180.832C89.4677 181.272 89.5597 181.656 89.7437 181.984C89.9277 182.304 90.1877 182.552 90.5237 182.728C90.8597 182.904 91.2477 182.992 91.6877 182.992C91.9997 182.992 92.2877 182.94 92.5517 182.836C92.8237 182.732 93.1157 182.544 93.4277 182.272L94.0517 183.148C93.8597 183.34 93.6237 183.508 93.3437 183.652C93.0717 183.796 92.7797 183.912 92.4677 184C92.1637 184.08 91.8637 184.12 91.5677 184.12ZM99.3909 184V179.896C99.3909 179.544 99.2629 179.26 99.0069 179.044C98.7589 178.82 98.4429 178.708 98.0589 178.708C97.7069 178.708 97.3869 178.78 97.0989 178.924C96.8189 179.068 96.5629 179.288 96.3309 179.584L95.5269 178.78C95.9029 178.372 96.3069 178.068 96.7389 177.868C97.1789 177.668 97.6509 177.568 98.1549 177.568C98.6349 177.568 99.0509 177.648 99.4029 177.808C99.7549 177.968 100.027 178.204 100.219 178.516C100.411 178.82 100.507 179.192 100.507 179.632V184H99.3909ZM97.5069 184.12C97.0989 184.12 96.7349 184.04 96.4149 183.88C96.0949 183.72 95.8389 183.5 95.6469 183.22C95.4629 182.932 95.3709 182.596 95.3709 182.212C95.3709 181.876 95.4309 181.58 95.5509 181.324C95.6709 181.068 95.8469 180.856 96.0789 180.688C96.3189 180.52 96.6149 180.392 96.9669 180.304C97.3269 180.216 97.7389 180.172 98.2029 180.172H99.9549L99.8469 181.156H98.0469C97.8069 181.156 97.5909 181.18 97.3989 181.228C97.2149 181.268 97.0549 181.336 96.9189 181.432C96.7909 181.52 96.6949 181.628 96.6309 181.756C96.5669 181.876 96.5349 182.02 96.5349 182.188C96.5349 182.364 96.5789 182.52 96.6669 182.656C96.7549 182.784 96.8749 182.884 97.0269 182.956C97.1789 183.028 97.3549 183.064 97.5549 183.064C97.8429 183.064 98.1149 183.016 98.3709 182.92C98.6349 182.816 98.8669 182.676 99.0669 182.5C99.2749 182.324 99.4349 182.128 99.5469 181.912L99.8349 182.716C99.6669 182.996 99.4589 183.24 99.2109 183.448C98.9629 183.656 98.6949 183.82 98.4069 183.94C98.1189 184.06 97.8189 184.12 97.5069 184.12ZM103.197 182.032L103.137 180.688L106.149 177.7H107.817L103.197 182.032ZM102.069 184V175.12H103.305V184H102.069ZM106.317 184L103.941 181.228L104.817 180.424L107.901 184H106.317ZM109.093 184V177.7H110.329V184H109.093ZM109.693 176.308C109.429 176.308 109.225 176.24 109.081 176.104C108.937 175.968 108.865 175.776 108.865 175.528C108.865 175.296 108.937 175.108 109.081 174.964C109.233 174.82 109.437 174.748 109.693 174.748C109.957 174.748 110.161 174.816 110.305 174.952C110.449 175.088 110.521 175.28 110.521 175.528C110.521 175.76 110.445 175.948 110.293 176.092C110.149 176.236 109.949 176.308 109.693 176.308ZM112.229 184V177.7H113.465V178.996L113.249 179.14C113.329 178.86 113.485 178.604 113.717 178.372C113.949 178.132 114.225 177.94 114.545 177.796C114.865 177.644 115.193 177.568 115.529 177.568C116.009 177.568 116.409 177.664 116.729 177.856C117.049 178.04 117.289 178.324 117.449 178.708C117.609 179.092 117.689 179.576 117.689 180.16V184H116.453V180.244C116.453 179.884 116.405 179.588 116.309 179.356C116.213 179.116 116.065 178.944 115.865 178.84C115.665 178.728 115.417 178.68 115.121 178.696C114.881 178.696 114.661 178.736 114.461 178.816C114.261 178.888 114.085 178.992 113.933 179.128C113.789 179.264 113.673 179.424 113.585 179.608C113.505 179.784 113.465 179.976 113.465 180.184V184H112.853C112.749 184 112.645 184 112.541 184C112.437 184 112.333 184 112.229 184ZM122.186 186.76C121.738 186.76 121.29 186.688 120.842 186.544C120.402 186.408 120.046 186.228 119.774 186.004L120.23 185.044C120.47 185.228 120.766 185.376 121.118 185.488C121.478 185.6 121.834 185.656 122.186 185.656C122.626 185.656 122.994 185.584 123.29 185.44C123.586 185.296 123.81 185.084 123.962 184.804C124.114 184.524 124.19 184.176 124.19 183.76V182.548L124.322 182.632C124.282 182.88 124.15 183.12 123.926 183.352C123.71 183.576 123.438 183.76 123.11 183.904C122.782 184.048 122.446 184.12 122.102 184.12C121.502 184.12 120.966 183.98 120.494 183.7C120.03 183.412 119.662 183.024 119.39 182.536C119.118 182.04 118.982 181.476 118.982 180.844C118.982 180.212 119.114 179.652 119.378 179.164C119.65 178.668 120.018 178.28 120.482 178C120.954 177.712 121.482 177.568 122.066 177.568C122.306 177.568 122.538 177.6 122.762 177.664C122.986 177.72 123.194 177.804 123.386 177.916C123.578 178.02 123.75 178.136 123.902 178.264C124.054 178.392 124.178 178.528 124.274 178.672C124.37 178.816 124.43 178.952 124.454 179.08L124.19 179.176V177.7H125.426V183.616C125.426 184.12 125.35 184.564 125.198 184.948C125.054 185.34 124.842 185.668 124.562 185.932C124.282 186.204 123.942 186.408 123.542 186.544C123.142 186.688 122.69 186.76 122.186 186.76ZM122.234 182.98C122.626 182.98 122.974 182.888 123.278 182.704C123.582 182.52 123.818 182.268 123.986 181.948C124.154 181.628 124.238 181.26 124.238 180.844C124.238 180.428 124.15 180.06 123.974 179.74C123.806 179.412 123.57 179.156 123.266 178.972C122.97 178.788 122.626 178.696 122.234 178.696C121.85 178.696 121.506 178.792 121.202 178.984C120.906 179.168 120.67 179.424 120.494 179.752C120.326 180.072 120.242 180.436 120.242 180.844C120.242 181.252 120.326 181.62 120.494 181.948C120.67 182.268 120.906 182.52 121.202 182.704C121.506 182.888 121.85 182.98 122.234 182.98Z" fill="black"/>
<defs>
<linearGradient id="paint0_linear_2_9" x1="45.5645" y1="34.8677" x2="143.279" y2="132.582" gradientUnits="userSpaceOnUse">
<stop stop-color="#A5A5FF"/>
<stop offset="1" stop-color="#5A5ABE"/>
</linearGradient>
</defs>
</svg>
